<?xml version="1.0" encoding="UTF-8"?>
<svg version="1.1" xmlns="http://www.w3.org/2000/svg" width="1024" height="1024">
<path d="M0 0 C337.92 0 675.84 0 1024 0 C1024 337.92 1024 675.84 1024 1024 C686.08 1024 348.16 1024 0 1024 C0 686.08 0 348.16 0 0 Z " fill="#D7562A" transform="translate(0,0)"/>
<path d="M0 0 C1.16646561 -0.00997513 2.33293121 -0.01995026 3.53474426 -0.03022766 C4.81585587 -0.03089233 6.09696747 -0.03155701 7.41690063 -0.03224182 C8.77867589 -0.03986269 10.14044685 -0.04829006 11.50221252 -0.0574646 C15.20267409 -0.07942378 18.90305301 -0.08821037 22.60357237 -0.09329104 C24.9154391 -0.09693294 27.22728414 -0.10317212 29.53914261 -0.11029243 C37.604362 -0.13479184 45.66951703 -0.14783989 53.73477173 -0.15138245 C61.25288524 -0.15501816 68.7705906 -0.18491448 76.28857934 -0.22678703 C82.74303125 -0.26147588 89.1973478 -0.27693064 95.6518923 -0.27762848 C99.50700445 -0.27842179 103.36170093 -0.28718425 107.21671677 -0.31562614 C110.8431963 -0.34178332 114.4689149 -0.34402608 118.09544563 -0.3279705 C120.05901486 -0.32528857 122.0225691 -0.34735578 123.98600769 -0.37016296 C133.5840878 -0.29021092 133.5840878 -0.29021092 136.67510986 2.63583374 C138.4079069 5.29255666 139.12644205 7.13042559 139.39590454 10.27415466 C140.05590454 10.27415466 140.71590454 10.27415466 141.39590454 10.27415466 C142.23121704 11.8713031 142.23121704 11.8713031 143.08340454 13.50071716 C146.80832121 20.59458297 150.56038527 27.65659064 154.58340454 34.58665466 C157.53863046 39.69855433 160.22835006 44.87793404 162.81387329 50.18431091 C165.25784869 54.95760607 168.01003605 59.54238628 170.75918579 64.14524841 C172.2385458 66.97333281 172.99112335 69.13563383 173.39590454 72.27415466 C174.05590454 72.27415466 174.71590454 72.27415466 175.39590454 72.27415466 C175.92957642 73.29251404 176.46324829 74.31087341 177.01309204 75.36009216 C177.76524434 76.79001744 178.51788825 78.21968419 179.27090454 79.64915466 C179.66785522 80.40341736 180.06480591 81.15768005 180.4737854 81.93479919 C182.67129289 86.08854607 184.90896741 90.21367884 187.22012329 94.30540466 C187.67725708 95.11574158 188.13439087 95.92607849 188.6053772 96.76097107 C189.49664183 98.33411266 190.39332793 99.90419692 191.29580688 101.47093201 C191.90416382 102.54528503 191.90416382 102.54528503 192.52481079 103.64134216 C192.88647339 104.27153259 193.24813599 104.90172302 193.62075806 105.55101013 C194.39590454 107.27415466 194.39590454 107.27415466 194.39590454 110.27415466 C195.05590454 110.27415466 195.71590454 110.27415466 196.39590454 110.27415466 C196.88059204 111.19454529 197.36527954 112.11493591 197.86465454 113.06321716 C198.54121165 114.34214151 199.21833894 115.62076432 199.89590454 116.89915466 C200.25104126 117.56978943 200.60617798 118.24042419 200.97207642 118.93138123 C204.13444413 124.86429429 207.49568495 130.66532319 210.92715454 136.44602966 C212.39590454 139.27415466 212.39590454 139.27415466 212.39590454 142.27415466 C213.05590454 142.27415466 213.71590454 142.27415466 214.39590454 142.27415466 C220.32991292 152.72108204 220.32991292 152.72108204 222.08340454 157.77415466 C223.07006385 161.14256502 223.07006385 161.14256502 224.79458618 162.66746521 C226.84704006 164.72680337 227.96889159 166.91228419 229.32949829 169.48118591 C229.88959595 170.53120789 230.4496936 171.58122986 231.02676392 172.66307068 C231.62295532 173.79285339 232.21914673 174.92263611 232.83340454 176.08665466 C233.46229715 177.26791698 234.09186316 178.44882101 234.72207642 179.62937927 C236.00424807 182.03153638 237.28448813 184.43470577 238.56338501 186.83860779 C241.14862703 191.68533384 243.76590675 196.51409932 246.39590454 201.33665466 C246.86931274 202.20709412 247.34272095 203.07753357 247.83047485 203.97434998 C250.58270944 209.01673829 253.38255979 214.02925096 256.22012329 219.02415466 C256.86272095 220.1584491 257.5053186 221.29274353 258.16738892 222.46141052 C259.41901471 224.66626865 260.67657823 226.86776955 261.94082642 229.06541443 C262.50736938 230.06371277 263.07391235 231.06201111 263.65762329 232.09056091 C264.16253296 232.9717157 264.66744263 233.85287048 265.18765259 234.76072693 C266.40326619 237.28946849 266.97819439 239.51019726 267.39590454 242.27415466 C268.05590454 242.27415466 268.71590454 242.27415466 269.39590454 242.27415466 C269.72461548 242.88259216 270.05332642 243.49102966 270.39199829 244.11790466 C275.68888604 253.87910702 281.11606138 263.5687924 286.64590454 273.19993591 C287.00378052 273.82343933 287.36165649 274.44694275 287.7303772 275.08934021 C288.70816952 276.79003811 289.68866368 278.48918181 290.66934204 280.18821716 C292.34204503 283.17788993 293.86395825 286.21026207 295.39590454 289.27415466 C297.30929674 292.87065076 299.25817709 296.44752935 301.20840454 300.02415466 C301.7169397 300.96259216 302.22547485 301.90102966 302.74942017 302.86790466 C305.72525881 308.32926632 308.80668965 313.69824688 312.06900024 318.99388123 C317.39590454 328.1481197 317.39590454 328.1481197 317.39590454 332.27415466 C318.05590454 332.27415466 318.71590454 332.27415466 319.39590454 332.27415466 C320.19641235 333.80169373 320.19641235 333.80169373 321.01309204 335.36009216 C328.25683757 349.13834779 335.71870014 362.78278557 343.60684204 376.20384216 C345.79585238 379.96052802 347.94554087 383.73818132 350.08340454 387.52415466 C350.45215698 388.1740033 350.82090942 388.82385193 351.20083618 389.49339294 C358.71701676 402.84305243 358.71701676 402.84305243 359.39590454 408.27415466 C360.05590454 408.27415466 360.71590454 408.27415466 361.39590454 408.27415466 C362.19140846 409.66780466 362.98212293 411.06418897 363.77090454 412.46165466 C364.21176392 413.23895935 364.65262329 414.01626404 365.10684204 414.81712341 C366.39590454 417.27415466 366.39590454 417.27415466 367.27285767 419.58006287 C368.49975671 422.52328699 369.99739162 425.11240473 371.65371704 427.83665466 C372.27891235 428.88079529 372.90410767 429.92493591 373.54824829 431.00071716 C374.86543831 433.1864701 376.18838217 435.36876573 377.51699829 437.54759216 C378.13961548 438.59173279 378.76223267 439.63587341 379.40371704 440.71165466 C379.97751099 441.6591156 380.55130493 442.60657654 381.14248657 443.58274841 C382.50798355 446.51481671 382.83362939 448.08783613 382.39590454 451.27415466 C381.40542603 453.5790863 381.40542603 453.5790863 380.01699829 455.93431091 C379.51112183 456.8046698 379.00524536 457.67502869 378.48403931 458.57176208 C377.93932983 459.48417664 377.39462036 460.39659119 376.83340454 461.33665466 C376.28418335 462.27678406 375.73496216 463.21691345 375.1690979 464.18553162 C373.5882256 466.88790731 371.99432581 469.58213197 370.39590454 472.27415466 C366.1315873 479.49478161 362.02747477 486.70977797 358.39590454 494.27415466 C357.73590454 494.27415466 357.07590454 494.27415466 356.39590454 494.27415466 C356.29277954 494.95477966 356.18965454 495.63540466 356.08340454 496.33665466 C355.24865435 499.90331455 353.901177 502.9363766 352.39590454 506.27415466 C351.73590454 506.27415466 351.07590454 506.27415466 350.39590454 506.27415466 C350.18965454 507.03727966 349.98340454 507.80040466 349.77090454 508.58665466 C347.00616714 516.0011777 342.88082065 522.77875892 338.39590454 529.27415466 C336.46879765 532.27187649 335.04745863 534.75576258 334.39590454 538.27415466 C333.73590454 538.27415466 333.07590454 538.27415466 332.39590454 538.27415466 C332.06590454 539.92415466 331.73590454 541.57415466 331.39590454 543.27415466 C330.73590454 543.27415466 330.07590454 543.27415466 329.39590454 543.27415466 C329.28182251 544.28155701 329.28182251 544.28155701 329.16543579 545.30931091 C328.15370409 549.20730261 326.17748315 552.31901557 324.08340454 555.71165466 C320.04144011 562.41782519 316.18815903 569.20198023 312.45840454 576.08665466 C311.95832886 577.00785095 311.45825317 577.92904724 310.94302368 578.87815857 C309.42567179 581.67593608 307.91053466 584.47490288 306.39590454 587.27415466 C304.44355215 590.88161111 302.48469347 594.48541281 300.52090454 598.08665466 C300.09301636 598.87983093 299.66512817 599.6730072 299.22427368 600.49021912 C290.88612403 615.75713974 290.88612403 615.75713974 286.33340454 617.33665466 C279.25653558 614.7769361 275.28385359 602.75484952 271.75131226 596.30360413 C270.69117691 594.36769535 269.62816985 592.43338908 268.56436157 590.49949646 C267.15300572 587.93348788 265.74250108 585.36701545 264.33291626 582.80003357 C256.25778586 568.04198374 256.25778586 568.04198374 247.74356079 553.53587341 C245.75701066 550.20192407 243.92759708 546.78811261 242.08731079 543.37181091 C240.84414499 541.09506615 239.58383884 538.83527887 238.29824829 536.58274841 C234.51906511 529.95665175 230.86477635 523.31916408 227.52090454 516.46165466 C223.31592486 507.85705991 218.47155506 499.65121322 213.63076782 491.39329529 C211.95507012 488.51764167 210.32057468 485.62347024 208.70840454 482.71165466 C208.25078735 481.8853656 207.79317017 481.05907654 207.32168579 480.20774841 C206.39590454 478.27415466 206.39590454 478.27415466 206.39590454 476.27415466 C205.73590454 476.27415466 205.07590454 476.27415466 204.39590454 476.27415466 C203.89961548 475.25837341 203.40332642 474.24259216 202.89199829 473.19602966 C199.1907363 465.67606356 195.35028455 458.34066815 191.04824829 451.14134216 C188.85486543 447.3353303 186.93825385 443.41768361 185.04824829 439.45384216 C183.65468598 436.77214069 182.17845716 434.22200053 180.61074829 431.64134216 C177.21532601 426.03897387 174.11151875 420.29875985 171.02090454 414.52415466 C166.81128144 406.70218348 162.53803453 398.93265202 158.09902954 391.23899841 C154.56989055 385.0953826 151.16799315 378.90316783 148.08340454 372.52415466 C145.9375717 368.16326857 143.4885209 364.04304116 140.95840454 359.89915466 C138.25886108 355.4770139 135.71633459 351.06896454 133.45840454 346.39915466 C131.11906797 341.57948042 128.51616002 336.99361509 125.77090454 332.39915466 C120.21173448 323.08204486 115.04883603 313.56352182 109.88516235 304.0231781 C103.5237573 292.28065008 97.05256358 280.61836911 90.32070923 269.08396912 C86.15101286 261.9132638 82.25718913 254.61399739 78.39590454 247.27415466 C76.42932236 243.5879781 74.42534188 239.92597887 72.39590454 236.27415466 C71.97695923 235.46462341 71.55801392 234.65509216 71.12637329 233.82102966 C68.75450773 229.42852129 68.75450773 229.42852129 64.39590454 227.27415466 C59.78168432 228.81222807 58.51449915 232.17588968 56.39590454 236.27415466 C55.7132426 237.53057933 55.02815878 238.78568983 54.34121704 240.03977966 C50.4431108 246.96607732 50.4431108 246.96607732 47.39590454 254.27415466 C46.73590454 254.27415466 46.07590454 254.27415466 45.39590454 254.27415466 C45.05559204 255.48071716 45.05559204 255.48071716 44.70840454 256.71165466 C43.66268657 259.55003202 42.58679491 261.8557982 41.11074829 264.46165466 C40.66432983 265.25434753 40.21791138 266.04704041 39.75796509 266.86375427 C39.30848511 267.6591864 38.85900513 268.45461853 38.39590454 269.27415466 C37.60804275 270.6913441 36.82153981 272.10928998 36.03652954 273.52806091 C35.23970727 274.96428809 34.44283085 276.40048522 33.64590454 277.83665466 C33.00455566 278.99294373 33.00455566 278.99294373 32.35025024 280.17259216 C30.22200849 284.00491697 28.08515565 287.8317998 25.92324829 291.64524841 C21.27040987 299.80596127 21.27040987 299.80596127 16.95840454 308.14915466 C13.10922296 316.03270182 8.68991856 323.627325 4.39590454 331.27415466 C4.00322388 331.9741156 3.61054321 332.67407654 3.20596313 333.39524841 C0.2199993 338.71611087 -2.77478801 344.03198612 -5.77304077 349.34593201 C-9.93499869 356.72301101 -14.08978882 364.10110011 -18.11972046 371.55149841 C-19.37222941 373.84886352 -20.63922343 376.13682602 -21.91268921 378.42259216 C-24.78342316 383.58276046 -27.59872496 388.77249379 -30.41659546 393.96165466 C-34.5337835 401.53695017 -38.72208532 409.05781247 -43.08065796 416.49681091 C-44.47782958 419.04396225 -45.59559926 421.55321194 -46.60409546 424.27415466 C-47.26409546 424.27415466 -47.92409546 424.27415466 -48.60409546 424.27415466 C-48.82584479 425.73050837 -49.03108243 427.18938423 -49.22909546 428.64915466 C-49.34511108 429.46126404 -49.46112671 430.27337341 -49.58065796 431.11009216 C-49.58839233 431.82423279 -49.59612671 432.53837341 -49.60409546 433.27415466 C-47.18822235 435.69002777 -45.94532295 435.51651147 -42.64875847 435.5491662 C-41.95625982 435.54586723 -41.26376117 435.54256825 -40.55027771 435.53916931 C-39.81564613 435.54355058 -39.08101456 435.54793185 -38.32412142 435.55244589 C-35.84975812 435.56481848 -33.37560535 435.56295425 -30.9012146 435.56126404 C-29.13240747 435.56728489 -27.36360321 435.57420828 -25.59480286 435.58197021 C-21.77954833 435.59688632 -17.96434639 435.60561517 -14.14906502 435.60968018 C-8.12014117 435.6163774 -2.09133015 435.63811239 3.93754578 435.66221619 C16.73613898 435.71124889 29.53475606 435.74352924 42.33340454 435.77415466 C56.14532293 435.80721119 69.95719736 435.84308207 83.7690478 435.89828539 C89.76609129 435.92168019 95.76305659 435.93538657 101.76014125 435.94178009 C105.48709568 435.9477053 109.21398648 435.96179005 112.94090843 435.97812462 C114.67314073 435.98401647 116.40538855 435.98646957 118.13763046 435.98528481 C120.49692432 435.98413091 122.85585809 435.99509952 125.21510315 436.00914001 C125.90537108 436.00584104 126.59563901 436.00254207 127.30682415 435.99914312 C130.90512905 436.03463967 132.30651015 436.2145584 135.39590454 438.27415466 C135.99093558 442.91881556 134.99904715 445.70682655 132.68496704 449.69602966 C132.10424438 450.71301941 131.52352173 451.73000916 130.92520142 452.77781677 C130.29678345 453.84910828 129.66836548 454.92039978 129.02090454 456.02415466 C127.73147674 458.27003872 126.44241662 460.51613392 125.15371704 462.76243591 C124.19513794 464.41880066 124.19513794 464.41880066 123.2171936 466.10862732 C120.72150489 470.44630826 118.30623211 474.82618441 115.89590454 479.21165466 C112.94795826 484.54325971 109.91611339 489.80416079 106.74746704 495.00852966 C104.15590705 499.35276317 101.78561449 503.81675242 99.39590454 508.27415466 C98.68897271 509.58280212 97.98193536 510.89139259 97.27481079 512.19993591 C96.54403995 513.5578463 95.81356899 514.91591811 95.08340454 516.27415466 C94.73358521 516.92150574 94.38376587 517.56885681 94.02334595 518.23582458 C92.6004482 520.8940276 91.35153753 523.4072557 90.39590454 526.27415466 C89.73590454 526.27415466 89.07590454 526.27415466 88.39590454 526.27415466 C88.3250061 526.93802185 88.25410767 527.60188904 88.18106079 528.28587341 C87.10928688 532.36501291 85.04061462 535.52094238 82.83340454 539.08665466 C78.89921444 545.58853348 75.31077082 552.16944904 71.9972229 559.00779724 C71.14267591 560.76939761 70.26990191 562.52212298 69.39590454 564.27415466 C68.7288147 565.64313904 68.7288147 565.64313904 68.04824829 567.03977966 C62.05325211 575.14648845 46.61724996 576.50018167 37.20132446 578.77391052 C32.37463108 579.96446003 27.81639626 581.5148353 23.18106079 583.28977966 C20.07620411 584.38714837 16.96211468 585.21119834 13.77090454 586.02415466 C6.8478385 587.81120626 0.07024469 589.94001446 -6.72909546 592.14915466 C-15.64457796 595.04449966 -24.58325245 597.77805544 -33.61630249 600.28343201 C-39.00807838 601.78450769 -44.31028759 603.45873888 -49.60409546 605.27415466 C-54.12279883 606.82215666 -58.64395464 608.36269587 -63.16659546 609.89915466 C-64.93680054 610.51017029 -64.93680054 610.51017029 -66.74276733 611.13352966 C-72.73594755 613.15920445 -78.28328856 614.82099422 -84.60409546 615.27415466 C-84.60409546 615.93415466 -84.60409546 616.59415466 -84.60409546 617.27415466 C-85.6114978 617.47718201 -85.6114978 617.47718201 -86.63925171 617.68431091 C-103.87173483 621.39763308 -120.62401521 627.24856238 -137.40927124 632.57884216 C-143.46767637 634.49812334 -149.53609577 636.38548178 -155.60409546 638.27415466 C-157.33466187 638.81556091 -157.33466187 638.81556091 -159.10018921 639.36790466 C-160.7418103 639.87837341 -160.7418103 639.87837341 -162.41659546 640.39915466 C-163.35116577 640.69048279 -164.28573608 640.98181091 -165.24862671 641.28196716 C-168.01965676 642.10134043 -170.79379385 642.86642484 -173.58456421 643.61399841 C-180.47544522 645.48223693 -187.28723028 647.59156004 -194.10409546 649.71165466 C-195.34546265 650.09386169 -196.58682983 650.47606873 -197.86581421 650.86985779 C-204.3898214 652.89443115 -210.84245892 655.01857712 -217.23153687 657.43748474 C-222.45483709 659.27945324 -228.03684221 660.82278544 -233.60409546 660.27415466 C-239.60984473 655.44176515 -242.88331348 646.32358027 -246.3999939 639.56712341 C-248.67374697 635.23721894 -251.01392161 630.94342447 -253.35409546 626.64915466 C-253.86480591 625.71168396 -254.37551636 624.77421326 -254.90170288 623.80833435 C-258.37359004 617.46116375 -261.93112442 611.16834274 -265.54159546 604.89915466 C-270.36567597 596.52198058 -275.00179622 588.05517208 -279.58358765 579.54344177 C-283.75284495 571.81153532 -288.0003029 564.12633995 -292.29159546 556.46165466 C-293.19240845 554.85048767 -293.19240845 554.85048767 -294.11141968 553.20677185 C-297.2183507 547.65586231 -297.2183507 547.65586231 -300.60409546 542.27415466 C-300.60409546 541.28415466 -300.60409546 540.29415466 -300.60409546 539.27415466 C-301.26409546 539.27415466 -301.92409546 539.27415466 -302.60409546 539.27415466 C-303.3717612 532.46569068 -300.90124316 528.51840905 -297.35409546 522.83665466 C-296.36748465 521.21431432 -295.38308234 519.5906287 -294.40097046 517.96556091 C-293.91974731 517.17270691 -293.43852417 516.37985291 -292.94271851 515.56297302 C-291.37621899 512.88452456 -290.01130933 510.14203187 -288.65438843 507.35350037 C-286.54102451 503.16951141 -284.13882462 499.14243885 -281.79159546 495.08665466 C-277.80523557 488.16012069 -273.91553429 481.2048634 -270.16268921 474.14915466 C-268.61745766 471.29880272 -267.00215099 468.50365462 -265.35409546 465.71165466 C-258.61130279 454.26564995 -252.3558156 442.5297424 -246.01815796 430.85618591 C-245.18630748 429.33725451 -244.35048162 427.82046769 -243.50546265 426.30882263 C-240.4498181 420.84176726 -237.50231658 415.32605949 -234.60409546 409.77415466 C-231.35820646 403.55624854 -228.03340047 397.39287525 -224.60409546 391.27415466 C-224.08202515 390.3344281 -223.55995483 389.39470154 -223.02206421 388.42649841 C-221.88274129 386.37571716 -220.74341838 384.32493591 -219.60409546 382.27415466 C-218.94409546 382.27415466 -218.28409546 382.27415466 -217.60409546 382.27415466 C-217.42620483 381.17031433 -217.42620483 381.17031433 -217.24472046 380.04417419 C-216.60934905 377.29687083 -215.75184421 375.3860798 -214.35409546 372.95384216 C-213.68893921 371.78015076 -213.68893921 371.78015076 -213.01034546 370.58274841 C-212.31425171 369.37811951 -212.31425171 369.37811951 -211.60409546 368.14915466 C-210.68520746 366.54365314 -209.76844709 364.93693152 -208.85409546 363.32884216 C-208.44675171 362.62227478 -208.03940796 361.9157074 -207.61972046 361.18772888 C-206.47119031 359.15115183 -206.47119031 359.15115183 -205.60409546 356.27415466 C-204.94409546 356.27415466 -204.28409546 356.27415466 -203.60409546 356.27415466 C-203.34596069 355.41910339 -203.08782593 354.56405212 -202.8218689 353.68309021 C-201.54915418 350.12035654 -199.96317351 347.03320311 -198.11972046 343.73118591 C-197.61260529 342.8175251 -197.61260529 342.8175251 -197.09524536 341.88540649 C-196.01960036 339.94980523 -194.93707423 338.01816037 -193.85409546 336.08665466 C-193.14268143 334.81022743 -192.43174009 333.53353663 -191.72128296 332.25657654 C-190.67675391 330.3795582 -189.6317861 328.50279813 -188.58468628 326.62721252 C-185.55349608 321.19664822 -182.56880063 315.74130318 -179.60409546 310.27415466 C-178.94409546 310.27415466 -178.28409546 310.27415466 -177.60409546 310.27415466 C-177.53319702 309.6231781 -177.46229858 308.97220154 -177.38925171 308.30149841 C-176.29152516 304.06897066 -174.20855749 300.61227672 -172.04159546 296.83665466 C-171.59122925 296.03896667 -171.14086304 295.24127869 -170.67684937 294.41941833 C-167.96712855 289.62879669 -165.2197415 284.85962869 -162.47909546 280.08665466 C-158.35441019 272.90171903 -154.48019659 265.59477424 -150.60409546 258.27415466 C-146.67389615 250.87917438 -142.5098388 243.64486881 -138.20614624 236.46214294 C-135.78983853 232.40247848 -133.58112412 228.29989022 -131.50204468 224.05809021 C-130.36510567 221.79935901 -129.07298368 219.66526471 -127.72909546 217.52415466 C-125.53875048 213.9319889 -123.57836017 210.3030869 -121.72909546 206.52415466 C-116.84605362 196.59232804 -111.28901913 187.07744882 -105.14706421 177.87181091 C-103.68581447 175.41173223 -102.59630253 172.93304678 -101.50424194 170.29393005 C-99.61356492 166.05157284 -97.28503841 162.02484636 -95.04159546 157.96165466 C-94.51654419 157.00484802 -93.99149292 156.04804138 -93.45053101 155.0622406 C-89.53713505 147.93968301 -85.59807634 140.83114341 -81.63900757 133.73387146 C-79.56514894 130.03410828 -79.56514894 130.03410828 -77.60409546 126.27415466 C-76.94409546 126.27415466 -76.28409546 126.27415466 -75.60409546 126.27415466 C-75.49613647 125.56170593 -75.38817749 124.8492572 -75.27694702 124.11521912 C-74.53622921 120.9875946 -73.37911841 118.63504188 -71.83847046 115.81712341 C-71.27772827 114.78651794 -70.71698608 113.75591248 -70.13925171 112.69407654 C-69.55015015 111.62737732 -68.96104858 110.5606781 -68.35409546 109.46165466 C-67.78046265 108.40655701 -67.20682983 107.35145935 -66.61581421 106.26438904 C-63.75233906 101.02990429 -60.82840331 95.88076782 -57.55819702 90.88865662 C-56.43479485 89.1169345 -56.43479485 89.1169345 -55.60409546 86.27415466 C-54.94409546 86.27415466 -54.28409546 86.27415466 -53.60409546 86.27415466 C-53.44167358 85.18167419 -53.44167358 85.18167419 -53.27597046 84.06712341 C-52.55789933 81.08211842 -51.5053642 79.16144226 -49.85409546 76.58665466 C-47.23312835 72.48277195 -45.06983888 68.24580458 -42.91610718 63.88621521 C-40.89960795 59.87160314 -38.72394521 55.95036726 -36.54159546 52.02415466 C-35.57896802 50.28348368 -34.61674387 48.54258963 -33.65487671 46.80149841 C-32.90971802 45.45354187 -32.90971802 45.45354187 -32.14950562 44.07835388 C-28.9953643 38.35505733 -25.87584332 32.61281589 -22.75228882 26.87278748 C-13.88453825 10.59011718 -13.88453825 10.59011718 -10.97909546 5.83665466 C-10.40288452 4.87952576 -10.40288452 4.87952576 -9.81503296 3.90306091 C-7.02525353 0.15035761 -4.35560254 0.0199412 0 0 Z " fill="#FEFDFD" transform="translate(475.6040954589844,177.72584533691406)"/>
<path d="M0 0 C1.76462683 3.08809695 2 4.23312136 2 8 C1.34 8 0.68 8 0 8 C0 9.32 0 10.64 0 12 C-0.66 12 -1.32 12 -2 12 C-2.04125 13.0725 -2.0825 14.145 -2.125 15.25 C-3 19 -3 19 -5.875 21.125 C-6.90625 21.74375 -7.9375 22.3625 -9 23 C-10.86310322 25.60024049 -10.86310322 25.60024049 -12 28 C-11.34 28 -10.68 28 -10 28 C-10 28.66 -10 29.32 -10 30 C-12.64 30.99 -15.28 31.98 -18 33 C-16.18187682 28.0304633 -13.71141702 23.4223278 -11.25 18.75 C-10.80479004 17.90332764 -10.35958008 17.05665527 -9.90087891 16.18432617 C-6.91301426 10.56460469 -3.78805056 5.12772698 0 0 Z " fill="#D6552E" transform="translate(858,628)"/>
<path d="M0 0 C0.33 1.32 0.66 2.64 1 4 C0.34 4 -0.32 4 -1 4 C-0.97679687 4.80824219 -0.95359375 5.61648438 -0.9296875 6.44921875 C-0.90261719 8.05216797 -0.90261719 8.05216797 -0.875 9.6875 C-0.85179687 10.74324219 -0.82859375 11.79898438 -0.8046875 12.88671875 C-1.01593346 16.25397943 -1.52120767 19.52120767 -4 22 C-6.33297433 22.04092937 -8.66705225 22.04241723 -11 22 C-9.65727474 16.89764402 -7.20905168 12.85578781 -4.46484375 8.4140625 C-2.8008299 5.67176767 -1.37208466 2.89662317 0 0 Z " fill="#D66439" transform="translate(463,538)"/>
<path d="M0 0 C0.33 1.32 0.66 2.64 1 4 C1.66 4 2.32 4 3 4 C3 4.66 3 5.32 3 6 C3.99 6.33 4.98 6.66 6 7 C5.01 7.33 4.02 7.66 3 8 C3 9.32 3 10.64 3 12 C3.66 12 4.32 12 5 12 C5 12.66 5 13.32 5 14 C3.68 14 2.36 14 1 14 C0.67 13.01 0.34 12.02 0 11 C-2.47627099 11.63921965 -2.47627099 11.63921965 -5 13 C-6.36078035 15.52372901 -6.36078035 15.52372901 -7 18 C-6.34 18 -5.68 18 -5 18 C-5 18.66 -5 19.32 -5 20 C-5.99 20 -6.98 20 -8 20 C-8 20.66 -8 21.32 -8 22 C-8.99 22 -9.98 22 -11 22 C-9.4504199 16.5060342 -6.84087949 11.90157715 -4 7 C-3.22879212 5.64604661 -2.45791915 4.29190235 -1.6875 2.9375 C-1.130625 1.968125 -0.57375 0.99875 0 0 Z " fill="#DA5D29" transform="translate(507,458)"/>
<path d="M0 0 C0.66 0 1.32 0 2 0 C2 1.98 2 3.96 2 6 C2.99 6.33 3.98 6.66 5 7 C3.35 10.63 1.7 14.26 0 18 C-0.66 18 -1.32 18 -2 18 C-2 17.34 -2 16.68 -2 16 C-2.66 16 -3.32 16 -4 16 C-3.67 14.68 -3.34 13.36 -3 12 C-3.99 11.67 -4.98 11.34 -6 11 C-6 9.35 -6 7.7 -6 6 C-5.195625 5.7525 -4.39125 5.505 -3.5625 5.25 C-0.828919 4.27761141 -0.828919 4.27761141 -0.1875 1.875 C-0.125625 1.25625 -0.06375 0.6375 0 0 Z " fill="#DA5F2B" transform="translate(422,246)"/>
<path d="M0 0 C0.66 0 1.32 0 2 0 C1.47731534 2.76276177 0.89130413 5.3260876 0 8 C0.66 8 1.32 8 2 8 C2 8.66 2 9.32 2 10 C2.66 10 3.32 10 4 10 C4 10.66 4 11.32 4 12 C2.68 12 1.36 12 0 12 C0 13.98 0 15.96 0 18 C-2.4384028 15.5615972 -3.58920371 13.0864312 -5.125 10 C-5.66382813 8.9275 -6.20265625 7.855 -6.7578125 6.75 C-8 4 -8 4 -8 2 C-5.36 2 -2.72 2 0 2 C0 1.34 0 0.68 0 0 Z " fill="#D55E30" transform="translate(650,232)"/>
<path d="M0 0 C1.32 0.33 2.64 0.66 4 1 C4 1.99 4 2.98 4 4 C4.66 4 5.32 4 6 4 C3.85882353 11.24705882 3.85882353 11.24705882 1 14 C-1.6875 14.25 -1.6875 14.25 -4 14 C-4 12.68 -4 11.36 -4 10 C-3.34 9.67 -2.68 9.34 -2 9 C-2.66 8.67 -3.32 8.34 -4 8 C-3.49396008 5.83125748 -3.00016187 4.00032373 -2 2 C-1.34 2 -0.68 2 0 2 C0 1.34 0 0.68 0 0 Z " fill="#DA612D" transform="translate(390,304)"/>
<path d="M0 0 C1.32 0.33 2.64 0.66 4 1 C2.54312342 3.60499124 1.08456349 6.20901482 -0.375 8.8125 C-0.7875 9.55048828 -1.2 10.28847656 -1.625 11.04882812 C-2.02460938 11.76103516 -2.42421875 12.47324219 -2.8359375 13.20703125 C-3.20251465 13.8616333 -3.5690918 14.51623535 -3.94677734 15.19067383 C-4.90206799 16.83176306 -5.9466896 18.4200344 -7 20 C-7.12375 19.360625 -7.2475 18.72125 -7.375 18.0625 C-7.58125 17.381875 -7.7875 16.70125 -8 16 C-8.66 15.67 -9.32 15.34 -10 15 C-9.34 14.01 -8.68 13.02 -8 12 C-7.34 12 -6.68 12 -6 12 C-5.855625 11.4225 -5.71125 10.845 -5.5625 10.25 C-4.78125 7.125 -4.78125 7.125 -4 4 C-3.34 4 -2.68 4 -2 4 C-2 3.34 -2 2.68 -2 2 C-1.34 2 -0.68 2 0 2 C0 1.34 0 0.68 0 0 Z " fill="#DA5C2E" transform="translate(224,612)"/>
<path d="M0 0 C-2.59980864 3.32957948 -5.11064555 3.61761712 -9.1875 4.1875 C-10.27417969 4.34605469 -11.36085938 4.50460937 -12.48046875 4.66796875 C-13.72763672 4.83232422 -13.72763672 4.83232422 -15 5 C-15.33 6.32 -15.66 7.64 -16 9 C-17.89575251 9.02721176 -19.79161979 9.04649136 -21.6875 9.0625 C-23.27111328 9.07990234 -23.27111328 9.07990234 -24.88671875 9.09765625 C-27.72410262 9.00865425 -30.2438919 8.64939838 -33 8 C-32.67 6.68 -32.34 5.36 -32 4 C-31.34 4.66 -30.68 5.32 -30 6 C-21.17334345 5.71060142 -12.97296517 2.81213187 -4.73046875 -0.19140625 C-2 -1 -2 -1 0 0 Z " fill="#D66948" transform="translate(272,831)"/>
<path d="M0 0 C0.66 0 1.32 0 2 0 C2 1.98 2 3.96 2 6 C2.66 6 3.32 6 4 6 C4.144375 5.38125 4.28875 4.7625 4.4375 4.125 C5 2 5 2 6 0 C6.66 0 7.32 0 8 0 C6.50829734 4.9723422 4.39542583 9.41845739 2 14 C1.34 14 0.68 14 0 14 C-2 11 -2 11 -2 8 C-2.66 8 -3.32 8 -4 8 C-3.67 6.68 -3.34 5.36 -3 4 C-2.01 4 -1.02 4 0 4 C0 2.68 0 1.36 0 0 Z " fill="#D9673C" transform="translate(296,474)"/>
<path d="M0 0 C3.50297874 4.02193856 9 10.39433144 9 16 C7.68 15.67 6.36 15.34 5 15 C5 14.01 5 13.02 5 12 C4.01 12 3.02 12 2 12 C1.87625 13.134375 1.7525 14.26875 1.625 15.4375 C1.41875 16.613125 1.2125 17.78875 1 19 C0.34 19.33 -0.32 19.66 -1 20 C-1.33 17.36 -1.66 14.72 -2 12 C-1.34 12 -0.68 12 0 12 C0 11.01 0 10.02 0 9 C0.66 9 1.32 9 2 9 C2 7.35 2 5.7 2 4 C0.35 3.67 -1.3 3.34 -3 3 C-2.01 2.67 -1.02 2.34 0 2 C0 1.34 0 0.68 0 0 Z " fill="#DB5D3C" transform="translate(715,716)"/>
<path d="M0 0 C0.33 0.99 0.66 1.98 1 3 C2.32 3 3.64 3 5 3 C5 4.32 5 5.64 5 7 C4.34 7 3.68 7 3 7 C3.33 8.32 3.66 9.64 4 11 C5.98 10.67 7.96 10.34 10 10 C9.34 12.31 8.68 14.62 8 17 C7.01 17 6.02 17 5 17 C2.36 11.72 -0.28 6.44 -3 1 C-2.01 0.67 -1.02 0.34 0 0 Z " fill="#D7633A" transform="translate(723,375)"/>
<path d="M0 0 C0.33 0.66 0.66 1.32 1 2 C1.969375 2.2475 2.93875 2.495 3.9375 2.75 C7 4 7 4 8.375 7.125 C8.58125 8.07375 8.7875 9.0225 9 10 C6.36 10 3.72 10 1 10 C1 9.34 1 8.68 1 8 C-0.32 7.67 -1.64 7.34 -3 7 C-1.125 2.25 -1.125 2.25 0 0 Z " fill="#D95C28" transform="translate(483,502)"/>
<path d="M0 0 C1.125 3.75 1.125 3.75 0 6 C0.99 6 1.98 6 3 6 C3 7.32 3 8.64 3 10 C0.36 10.66 -2.28 11.32 -5 12 C-5.33 13.32 -5.66 14.64 -6 16 C-6.96887581 18.01526169 -7.9641321 20.01833966 -9 22 C-9.66 22 -10.32 22 -11 22 C-9.48968084 16.73877829 -7.09625809 12.32767414 -4.375 7.625 C-3.95476562 6.88894531 -3.53453125 6.15289062 -3.1015625 5.39453125 C-2.07247236 3.5936235 -1.03689244 1.79642682 0 0 Z " fill="#F7E7D9" transform="translate(295,490)"/>
<path d="M0 0 C0 3.93974955 -1.47789475 5.82936093 -3.5 9.1875 C-4.1496875 10.27417969 -4.799375 11.36085938 -5.46875 12.48046875 C-6.22671875 13.72763672 -6.22671875 13.72763672 -7 15 C-7.103125 14.360625 -7.20625 13.72125 -7.3125 13.0625 C-7.539375 12.381875 -7.76625 11.70125 -8 11 C-8.99 10.67 -9.98 10.34 -11 10 C-9.75 7.5 -9.75 7.5 -8 5 C-6.68 5 -5.36 5 -4 5 C-4 4.34 -4 3.68 -4 3 C-4.66 3 -5.32 3 -6 3 C-6 2.34 -6 1.68 -6 1 C-4.02 0.67 -2.04 0.34 0 0 Z " fill="#D76536" transform="translate(372,351)"/>
<path d="M0 0 C0.625 1.8125 0.625 1.8125 1 4 C0.01 5.485 0.01 5.485 -1 7 C0.32 7 1.64 7 3 7 C3 8.32 3 9.64 3 11 C3.66 11 4.32 11 5 11 C5 11.66 5 12.32 5 13 C3.68 13 2.36 13 1 13 C1 12.34 1 11.68 1 11 C0.34 11 -0.32 11 -1 11 C-1 10.34 -1 9.68 -1 9 C-1.66 9 -2.32 9 -3 9 C-3.433125 10.1446875 -3.433125 10.1446875 -3.875 11.3125 C-5 14 -5 14 -7 17 C-8 14 -8 14 -6.34765625 10.64453125 C-5.59622298 9.36110983 -4.83403499 8.08393866 -4.0625 6.8125 C-3.48338867 5.83120117 -3.48338867 5.83120117 -2.89257812 4.83007812 C-1.93746912 3.21464684 -0.96989934 1.60659475 0 0 Z " fill="#D76840" transform="translate(585,667)"/>
<path d="M0 0 C0.99 0.66 1.98 1.32 3 2 C2.67 5.3 2.34 8.6 2 12 C1.2575 12.12375 0.515 12.2475 -0.25 12.375 C-2.80141485 12.95486701 -4.7267573 13.73708739 -7 15 C-5.63408831 11.45756548 -4.09068516 8.07372071 -2.375 4.6875 C-1.70597656 3.36298828 -1.70597656 3.36298828 -1.0234375 2.01171875 C-0.68570312 1.34785156 -0.34796875 0.68398438 0 0 Z " fill="#F4EFE8" transform="translate(316,452)"/>
<path d="M0 0 C0.66 0 1.32 0 2 0 C2 0.66 2 1.32 2 2 C2.66 2 3.32 2 4 2 C4 1.34 4 0.68 4 0 C4.66 0 5.32 0 6 0 C4.45454854 5.47932789 1.84456788 10.11429181 -1 15 C-1.33 15 -1.66 15 -2 15 C-2.05429959 13.25034642 -2.09292823 11.50020213 -2.125 9.75 C-2.15980469 8.28820312 -2.15980469 8.28820312 -2.1953125 6.796875 C-1.99862781 3.9803502 -1.44568916 2.39050964 0 0 Z " fill="#D66439" transform="translate(280,506)"/>
<path d="M0 0 C0.66 0 1.32 0 2 0 C2 0.66 2 1.32 2 2 C2.66 2 3.32 2 4 2 C4 1.34 4 0.68 4 0 C5.32 0 6.64 0 8 0 C6.66511872 3.59391114 5.03977277 6.75490696 3 10 C2.01 9.67 1.02 9.34 0 9 C0 6.03 0 3.06 0 0 Z " fill="#DC5E2F" transform="translate(408,272)"/>
<path d="M0 0 C1.98 0 3.96 0 6 0 C4.77472971 4.05281712 3.30119506 7.44360764 1 11 C-0.5 9.75 -0.5 9.75 -2 8 C-2 6.68 -2 5.36 -2 4 C-1.34 4 -0.68 4 0 4 C0 2.68 0 1.36 0 0 Z " fill="#DB6430" transform="translate(434,228)"/>
<path d="M0 0 C0.66 0 1.32 0 2 0 C2 2.64 2 5.28 2 8 C2.66 8 3.32 8 4 8 C4 9.98 4 11.96 4 14 C4.66 14 5.32 14 6 14 C5.67 15.32 5.34 16.64 5 18 C3.84800669 16.08702939 2.70362312 14.16947471 1.5625 12.25 C0.92441406 11.18265625 0.28632812 10.1153125 -0.37109375 9.015625 C-1.69473099 6.56515029 -2.53297051 4.71008663 -3 2 C-2.34 2 -1.68 2 -1 2 C-0.67 1.34 -0.34 0.68 0 0 Z " fill="#D56439" transform="translate(636,216)"/>
<path d="M0 0 C0.33 1.32 0.66 2.64 1 4 C0.34 4 -0.32 4 -1 4 C-1 4.66 -1 5.32 -1 6 C-0.01 6.33 0.98 6.66 2 7 C0.36587557 8.70840281 -0.86906094 9.93453047 -3 11 C-3.33 11.99 -3.66 12.98 -4 14 C-4.99 14.495 -4.99 14.495 -6 15 C-6.33 15.99 -6.66 16.98 -7 18 C-7.66 18 -8.32 18 -9 18 C-6.57885403 11.66777207 -3.39295073 5.84991505 0 0 Z " fill="#D77749" transform="translate(517,440)"/>
<path d="M0 0 C0.9075 0.103125 1.815 0.20625 2.75 0.3125 C2.75 0.6425 2.75 0.9725 2.75 1.3125 C1.780625 1.621875 0.81125 1.93125 -0.1875 2.25 C-3.09065792 3.00773342 -3.09065792 3.00773342 -4.25 4.3125 C-2.93 4.6425 -1.61 4.9725 -0.25 5.3125 C-0.25 4.6525 -0.25 3.9925 -0.25 3.3125 C0.41 3.3125 1.07 3.3125 1.75 3.3125 C1.75 4.6325 1.75 5.9525 1.75 7.3125 C-0.23 7.3125 -2.21 7.3125 -4.25 7.3125 C-4.25 7.9725 -4.25 8.6325 -4.25 9.3125 C-4.91 9.3125 -5.57 9.3125 -6.25 9.3125 C-6.58 9.9725 -6.91 10.6325 -7.25 11.3125 C-7.91 11.3125 -8.57 11.3125 -9.25 11.3125 C-6.26102941 0.60202206 -6.26102941 0.60202206 0 0 Z " fill="#DD5F33" transform="translate(540.25,404.6875)"/>
<path d="M0 0 C2.33364352 2.92903058 4.04960836 5.88568203 5.6875 9.25 C6.34298828 10.58804688 6.34298828 10.58804688 7.01171875 11.953125 C7.33785156 12.62859375 7.66398438 13.3040625 8 14 C6.68 14 5.36 14 4 14 C4 13.34 4 12.68 4 12 C3.34 11.67 2.68 11.34 2 11 C2.33 10.01 2.66 9.02 3 8 C2.34 8 1.68 8 1 8 C0.67 7.34 0.34 6.68 0 6 C-1.32 6.33 -2.64 6.66 -4 7 C-3.67 6.01 -3.34 5.02 -3 4 C-2.01 4 -1.02 4 0 4 C0 2.68 0 1.36 0 0 Z " fill="#D8653B" transform="translate(598,504)"/>
<path d="M0 0 C1.65 0.33 3.3 0.66 5 1 C3.68139111 5.61513112 1.78644563 9.09897612 -1 13 C-1.33 11.68 -1.66 10.36 -2 9 C-1.34 9 -0.68 9 0 9 C0 8.34 0 7.68 0 7 C-0.66 7 -1.32 7 -2 7 C-1.67 5.68 -1.34 4.36 -1 3 C-0.34 3 0.32 3 1 3 C0.67 2.01 0.34 1.02 0 0 Z " fill="#D86036" transform="translate(178,691)"/>
<path d="M0 0 C3.93345152 1.31115051 4.32374076 2.84212778 6.25 6.4375 C6.79140625 7.42621094 7.3328125 8.41492188 7.890625 9.43359375 C8.25671875 10.28050781 8.6228125 11.12742187 9 12 C8.67 12.66 8.34 13.32 8 14 C5.525 13.01 5.525 13.01 3 12 C3 9.69 3 7.38 3 5 C2.34 5 1.68 5 1 5 C0.67 3.35 0.34 1.7 0 0 Z " fill="#D37145" transform="translate(543,407)"/>
<path d="M0 0 C2.53148969 1.26574484 2.7776667 2.27395168 3.9453125 4.81640625 C4.47705078 5.96206055 4.47705078 5.96206055 5.01953125 7.13085938 C5.38433594 7.93330078 5.74914062 8.73574219 6.125 9.5625 C6.49753906 10.36880859 6.87007812 11.17511719 7.25390625 12.00585938 C8.17492012 14.00138943 9.0899905 15.9994336 10 18 C9.34 18.33 8.68 18.66 8 19 C8 18.34 8 17.68 8 17 C7.01 17 6.02 17 5 17 C5 15.02 5 13.04 5 11 C4.34 11 3.68 11 3 11 C3 10.01 3 9.02 3 8 C2.34 7.67 1.68 7.34 1 7 C0.59270772 4.67843403 0.25561323 2.3431213 0 0 Z " fill="#D8734A" transform="translate(552,421)"/>
<path d="M0 0 C0.99 0 1.98 0 3 0 C3 0.66 3 1.32 3 2 C4.65 2 6.3 2 8 2 C6.92598892 4.91517292 6.22189824 6.77810176 4 9 C3.34 8.67 2.68 8.34 2 8 C2 8.66 2 9.32 2 10 C1.34 10 0.68 10 0 10 C0.66666667 7.33333333 1.33333333 4.66666667 2 2 C1.34 2 0.68 2 0 2 C0 1.34 0 0.68 0 0 Z " fill="#D3602D" transform="translate(354,368)"/>
<path d="M0 0 C2.1519437 3.22791555 2.20086443 4.28400809 2 8 C1.34 8 0.68 8 0 8 C0 7.34 0 6.68 0 6 C-0.66 6 -1.32 6 -2 6 C-1.938125 6.78375 -1.87625 7.5675 -1.8125 8.375 C-1.874375 9.24125 -1.93625 10.1075 -2 11 C-2.99 11.66 -3.98 12.32 -5 13 C-5.33 13.99 -5.66 14.98 -6 16 C-6.66 16 -7.32 16 -8 16 C-6.57250019 12.20950293 -4.83763458 8.72877544 -2.875 5.1875 C-2.33617187 4.21167969 -1.79734375 3.23585938 -1.2421875 2.23046875 C-0.83226562 1.49441406 -0.42234375 0.75835938 0 0 Z " fill="#D76442" transform="translate(786,756)"/>
<path d="M0 0 C0.99 0 1.98 0 3 0 C3.33 2.97 3.66 5.94 4 9 C3.01 9.33 2.02 9.66 1 10 C-0.32 7.36 -1.64 4.72 -3 2 C-2.01 2 -1.02 2 0 2 C0 1.34 0 0.68 0 0 Z " fill="#D96538" transform="translate(627,200)"/>
<path d="M0 0 C0.99 0 1.98 0 3 0 C1.43358249 4.30764815 -0.68336156 8.06171464 -3 12 C-3.33 11.34 -3.66 10.68 -4 10 C-4.66 9.67 -5.32 9.34 -6 9 C-5.01 8.67 -4.02 8.34 -3 8 C-3 7.34 -3 6.68 -3 6 C-3.99 6 -4.98 6 -6 6 C-6 4.68 -6 3.36 -6 2 C-5.34 2 -4.68 2 -4 2 C-4 2.66 -4 3.32 -4 4 C-2.68 4 -1.36 4 0 4 C0 2.68 0 1.36 0 0 Z " fill="#DA6842" transform="translate(236,592)"/>
<path d="M0 0 C0.99 0.66 1.98 1.32 3 2 C3 2.99 3 3.98 3 5 C2.34 5 1.68 5 1 5 C1 6.32 1 7.64 1 9 C-0.98 9.66 -2.96 10.32 -5 11 C-3.125 5.25 -3.125 5.25 -2 3 C-1.34 3 -0.68 3 0 3 C0 2.01 0 1.02 0 0 Z " fill="#D76433" transform="translate(523,429)"/>
<path d="M0 0 C1.32 0 2.64 0 4 0 C4 0.66 4 1.32 4 2 C4.66 2 5.32 2 6 2 C6 2.66 6 3.32 6 4 C6.66 4 7.32 4 8 4 C7.34 6.31 6.68 8.62 6 11 C2.90407165 7.4912812 1.25805377 4.50802601 0 0 Z " fill="#D7643A" transform="translate(654,256)"/>
<path d="M0 0 C0.66 0 1.32 0 2 0 C2 0.66 2 1.32 2 2 C2.66 2 3.32 2 4 2 C4 2.66 4 3.32 4 4 C4.66 4 5.32 4 6 4 C6 4.66 6 5.32 6 6 C4.68 6 3.36 6 2 6 C2 7.98 2 9.96 2 12 C-0.6465335 9.3534665 -1.59941997 6.43778736 -3 3 C-1.68 3.33 -0.36 3.66 1 4 C0.67 2.68 0.34 1.36 0 0 Z " fill="#DA6A3F" transform="translate(648,238)"/>
<path d="M0 0 C0.99 0.33 1.98 0.66 3 1 C3 2.33333333 3 3.66666667 3 5 C-1.62 5 -6.24 5 -11 5 C-10.01 4.01 -9.02 3.02 -8 2 C-5.5 2.5 -5.5 2.5 -3 3 C-1.1645201 1.66621425 -1.1645201 1.66621425 0 0 Z " fill="#CE4E21" transform="translate(519,755)"/>
<path d="M0 0 C2.09749995 2.35968744 2.96905704 3.54616994 3.1875 6.75 C3.125625 7.4925 3.06375 8.235 3 9 C1.68 9.33 0.36 9.66 -1 10 C-1 9.34 -1 8.68 -1 8 C-1.99 8.33 -2.98 8.66 -4 9 C-2.80100302 5.9168649 -1.52299523 2.93720508 0 0 Z " fill="#D76641" transform="translate(561,710)"/>
<path d="M0 0 C2.89932357 2.39509338 3.50168276 4.31245243 4 8 C4.66 8 5.32 8 6 8 C6.66 9.98 7.32 11.96 8 14 C7.34 14.66 6.68 15.32 6 16 C6 14.68 6 13.36 6 12 C5.01 12 4.02 12 3 12 C3 11.34 3 10.68 3 10 C2.34 10 1.68 10 1 10 C1.020625 9.0925 1.04125 8.185 1.0625 7.25 C1.0110245 4.57327412 0.7784983 2.53011948 0 0 Z " fill="#F7EBDF" transform="translate(611,180)"/>
<path d="M0 0 C0.66 0.66 1.32 1.32 2 2 C2.99 1.34 3.98 0.68 5 0 C5 3.63 5 7.26 5 11 C4.67 10.34 4.34 9.68 4 9 C3.01 9 2.02 9 1 9 C0.855625 8.21625 0.71125 7.4325 0.5625 6.625 C0.12201075 4.03578982 0.12201075 4.03578982 -1 2 C-0.67 1.34 -0.34 0.68 0 0 Z " fill="#D66036" transform="translate(587,663)"/>
<path d="M0 0 C0.66 0 1.32 0 2 0 C2 0.66 2 1.32 2 2 C2.66 2 3.32 2 4 2 C2.55049545 5.7910119 0.84827434 9.3874638 -1 13 C-2.17664871 9.47005387 -2.19850603 6.70544587 -2 3 C-1.34 2.01 -0.68 1.02 0 0 Z " fill="#D76E44" transform="translate(348,386)"/>
<path d="M0 0 C2.15377564 2.62198774 3.40072174 4.64404172 4 8 C3.34 8 2.68 8 2 8 C2 9.32 2 10.64 2 12 C1.34 12 0.68 12 0 12 C0 10.68 0 9.36 0 8 C-0.66 8 -1.32 8 -2 8 C-2 6.68 -2 5.36 -2 4 C-1.34 4 -0.68 4 0 4 C0 2.68 0 1.36 0 0 Z " fill="#D85F37" transform="translate(730,742)"/>
<path d="M0 0 C0 1.32 0 2.64 0 4 C0.66 4 1.32 4 2 4 C2 4.66 2 5.32 2 6 C2.66 6 3.32 6 4 6 C4 6.66 4 7.32 4 8 C3.01 8 2.02 8 1 8 C0.67 8.66 0.34 9.32 0 10 C-0.33 8.68 -0.66 7.36 -1 6 C-1.66 6 -2.32 6 -3 6 C-3.33 4.35 -3.66 2.7 -4 1 C-2 0 -2 0 0 0 Z " fill="#DC592D" transform="translate(618,182)"/>
<path d="M0 0 C7 8.75 7 8.75 7 13 C6.34 13 5.68 13 5 13 C4.34 12.01 3.68 11.02 3 10 C2.01 9.67 1.02 9.34 0 9 C0 6.03 0 3.06 0 0 Z " fill="#D97152" transform="translate(216,793)"/>
<path d="M0 0 C1.17571451 3.67410785 1.07366746 7.16929183 1 11 C0.01 11.495 0.01 11.495 -1 12 C-1.33 11.01 -1.66 10.02 -2 9 C-2.66 10.32 -3.32 11.64 -4 13 C-4.66 13 -5.32 13 -6 13 C-4.58707905 8.1725201 -2.57025846 4.2837641 0 0 Z " fill="#D76740" transform="translate(607,627)"/>
<path d="M0 0 C0.78375 0.165 1.5675 0.33 2.375 0.5 C5.09522679 1.23945377 5.09522679 1.23945377 8 0 C7.690625 0.763125 7.38125 1.52625 7.0625 2.3125 C6.32106407 4.18789677 5.63771783 6.08684652 5 8 C4.34 8 3.68 8 3 8 C3 7.34 3 6.68 3 6 C2.34 6 1.68 6 1 6 C1.33 4.68 1.66 3.36 2 2 C1.01 1.67 0.02 1.34 -1 1 C-0.67 0.67 -0.34 0.34 0 0 Z " fill="#D96735" transform="translate(417,256)"/>
<path d="M0 0 C1.32 0 2.64 0 4 0 C2.68938409 4.23429756 1.05643741 8.07407404 -1 12 C-1.33 12 -1.66 12 -2 12 C-2 9.36 -2 6.72 -2 4 C-1.34 4 -0.68 4 0 4 C0 2.68 0 1.36 0 0 Z " fill="#D9693E" transform="translate(450,202)"/>
<path d="M0 0 C0 0.66 0 1.32 0 2 C0.66 2 1.32 2 2 2 C2 3.32 2 4.64 2 6 C0.35 6 -1.3 6 -3 6 C-3.103125 5.360625 -3.20625 4.72125 -3.3125 4.0625 C-3.539375 3.381875 -3.76625 2.70125 -4 2 C-4.99 1.67 -5.98 1.34 -7 1 C-4 0 -4 0 0 0 Z " fill="#D55F36" transform="translate(294,824)"/>
<path d="M0 0 C1.32 0 2.64 0 4 0 C4 1.32 4 2.64 4 4 C4.66 3.34 5.32 2.68 6 2 C6 2.66 6 3.32 6 4 C6.66 4 7.32 4 8 4 C8 5.32 8 6.64 8 8 C6.68 8 5.36 8 4 8 C4 7.34 4 6.68 4 6 C3.34 6 2.68 6 2 6 C0 3 0 3 0 0 Z " fill="#D54D21" transform="translate(722,738)"/>
<path d="M0 0 C0.33 0 0.66 0 1 0 C1 2.64 1 5.28 1 8 C0.34 8 -0.32 8 -1 8 C-1.33 8.99 -1.66 9.98 -2 11 C-2.99 11 -3.98 11 -5 11 C-3.77782954 6.95743617 -2.37245704 3.50711041 0 0 Z " fill="#D86B45" transform="translate(443,574)"/>
<path d="M0 0 C0.99 0 1.98 0 3 0 C6.22265625 5.2734375 6.22265625 5.2734375 7 7 C6.67 7.66 6.34 8.32 6 9 C4.02 8.01 2.04 7.02 0 6 C0 4.02 0 2.04 0 0 Z " fill="#D75F3A" transform="translate(232,826)"/>
<path d="M0 0 C0.33 0 0.66 0 1 0 C1.54609643 3.60423647 0.81391085 5.79552569 -1.0625 8.8125 C-2.421875 10.6171875 -2.421875 10.6171875 -4 12 C-7.8125 12.4375 -7.8125 12.4375 -11 12 C-11 11.67 -11 11.34 -11 11 C-10.113125 10.855625 -9.22625 10.71125 -8.3125 10.5625 C-3.52484554 8.30417243 -2.16915074 4.6646339 0 0 Z " fill="#DF7A5F" transform="translate(771,783)"/>
<path d="M0 0 C0.99 0 1.98 0 3 0 C4.25541557 3.76624671 3.37061958 5.37188934 2 9 C1.01 9 0.02 9 -1 9 C-1.09765625 2.84765625 -1.09765625 2.84765625 -1 1 C-0.67 0.67 -0.34 0.34 0 0 Z " fill="#D34C25" transform="translate(773,782)"/>
<path d="M0 0 C0 0.99 0 1.98 0 3 C-6.4 4.35384615 -6.4 4.35384615 -9.4375 2.5625 C-9.953125 2.046875 -10.46875 1.53125 -11 1 C-3.57142857 -1.42857143 -3.57142857 -1.42857143 0 0 Z " fill="#DA6A42" transform="translate(502,761)"/>
<path d="M0 0 C0.33 0.66 0.66 1.32 1 2 C0.0625 4.625 0.0625 4.625 -1 7 C-1.66 7 -2.32 7 -3 7 C-3.12375 7.7425 -3.2475 8.485 -3.375 9.25 C-3.95486701 11.80141485 -4.73708739 13.7267573 -6 16 C-6.66 16 -7.32 16 -8 16 C-6.42986223 10.03347646 -3.24970218 5.17090975 0 0 Z " fill="#F3D5CA" transform="translate(189,682)"/>
<path d="M0 0 C1.98 0 3.96 0 6 0 C6 1.32 6 2.64 6 4 C6.66 4 7.32 4 8 4 C6.25 8.875 6.25 8.875 4 10 C3.34 7.36 2.68 4.72 2 2 C1.34 2 0.68 2 0 2 C0 1.34 0 0.68 0 0 Z " fill="#DC5F31" transform="translate(246,560)"/>
<path d="M0 0 C0.66 0 1.32 0 2 0 C2 0.66 2 1.32 2 2 C2.66 2 3.32 2 4 2 C4 3.32 4 4.64 4 6 C2.68 6 1.36 6 0 6 C-0.33 6.66 -0.66 7.32 -1 8 C-1.66 6.02 -2.32 4.04 -3 2 C-2.01 2 -1.02 2 0 2 C0 1.34 0 0.68 0 0 Z " fill="#D86036" transform="translate(632,208)"/>
<path d="M0 0 C0.66 0.99 1.32 1.98 2 3 C1.67 3.33 1.34 3.66 1 4 C0.95936168 5.66617115 0.957279 7.33388095 1 9 C0.34 9 -0.32 9 -1 9 C-1.33 9.66 -1.66 10.32 -2 11 C-2.99 10.67 -3.98 10.34 -5 10 C-3.35 6.7 -1.7 3.4 0 0 Z " fill="#D66341" transform="translate(821,693)"/>
<path d="M0 0 C0.33 0 0.66 0 1 0 C1 1.98 1 3.96 1 6 C1.66 6 2.32 6 3 6 C3 6.66 3 7.32 3 8 C0.36 8.99 -2.28 9.98 -5 11 C-3.55049545 7.2089881 -1.84827434 3.6125362 0 0 Z " fill="#D45F3E" transform="translate(845,650)"/>
<path d="M0 0 C0.33 0.66 0.66 1.32 1 2 C1.99 2.33 2.98 2.66 4 3 C2.35 5.97 0.7 8.94 -1 12 C-1.33 12 -1.66 12 -2 12 C-1.85904936 10.3745692 -1.71207913 8.74965949 -1.5625 7.125 C-1.48128906 6.22007812 -1.40007812 5.31515625 -1.31640625 4.3828125 C-1 2 -1 2 0 0 Z " fill="#D76035" transform="translate(306,462)"/>
<path d="M0 0 C3.0916909 2.52956528 3.90931332 5.22454612 5 9 C2.625 8.75 2.625 8.75 0 8 C-1.4375 6.1875 -1.4375 6.1875 -2 4 C-1.125 1.75 -1.125 1.75 0 0 Z " fill="#D5633F" transform="translate(196,758)"/>
<path d="M0 0 C1.66666667 0 3.33333333 0 5 0 C5 3.63 5 7.26 5 11 C0 4.33333333 0 4.33333333 0 0 Z " fill="#D35C3C" transform="translate(779,480)"/>
<path d="M0 0 C0.66 0.33 1.32 0.66 2 1 C2 3.31 2 5.62 2 8 C0.125 7.875 0.125 7.875 -2 7 C-3.25 3.9375 -3.25 3.9375 -4 1 C-2.68 1.33 -1.36 1.66 0 2 C0 1.34 0 0.68 0 0 Z " fill="#DD7048" transform="translate(700,332)"/>
<path d="M0 0 C0.5775 0.61875 1.155 1.2375 1.75 1.875 C3.80249821 3.81347053 5.43366582 4.90014249 8 6 C6.02 6 4.04 6 2 6 C2 6.66 2 7.32 2 8 C0.68 8 -0.64 8 -2 8 C-2 7.34 -2 6.68 -2 6 C-1.34 6 -0.68 6 0 6 C-0.2784375 5.071875 -0.2784375 5.071875 -0.5625 4.125 C-1 2 -1 2 0 0 Z " fill="#D05C34" transform="translate(756,790)"/>
<path d="M0 0 C0.144375 0.598125 0.28875 1.19625 0.4375 1.8125 C0.8872439 3.56150404 1.42892341 5.28677023 2 7 C0.02 7.66 -1.96 8.32 -4 9 C-4 9.99 -4 10.98 -4 12 C-4.66 11.67 -5.32 11.34 -6 11 C-5.67 10.01 -5.34 9.02 -5 8 C-4.34 8 -3.68 8 -3 8 C-2.87625 7.236875 -2.7525 6.47375 -2.625 5.6875 C-2 3 -2 3 0 0 Z " fill="#D7704B" transform="translate(569,696)"/>
<path d="M0 0 C2.625 -0.1875 2.625 -0.1875 5 0 C3.87548273 2.9719385 2.77706209 5.33440687 1 8 C0.87625 7.360625 0.7525 6.72125 0.625 6.0625 C0.315625 5.0415625 0.315625 5.0415625 0 4 C-0.66 3.67 -1.32 3.34 -2 3 C-1.34 2.01 -0.68 1.02 0 0 Z " fill="#DC653C" transform="translate(216,624)"/>
<path d="M0 0 C1.32 0 2.64 0 4 0 C4 0.66 4 1.32 4 2 C3.34 2.66 2.68 3.32 2 4 C2 4.66 2 5.32 2 6 C0.68 5.67 -0.64 5.34 -2 5 C-2.33 6.32 -2.66 7.64 -3 9 C-3.33 8.01 -3.66 7.02 -4 6 C-2.3125 2.8125 -2.3125 2.8125 0 0 Z " fill="#DA693B" transform="translate(490,490)"/>
<path d="M0 0 C1.32 0 2.64 0 4 0 C2.7508258 3.45925163 1.32472205 6.14693203 -1 9 C-1.33 6.69 -1.66 4.38 -2 2 C-1.34 2 -0.68 2 0 2 C0 1.34 0 0.68 0 0 Z " fill="#D86D3E" transform="translate(444,214)"/>
<path d="M0 0 C3 1 3 1 4 2 C4.66 2 5.32 2 6 2 C5.43628586 5.26954202 4.50037734 6.82575883 2 9 C2 8.01 2 7.02 2 6 C1.34 6 0.68 6 0 6 C0 4.02 0 2.04 0 0 Z " fill="#D9683A" transform="translate(456,186)"/>
<path d="M0 0 C3.2910841 3.60957611 4.54663921 6.12637153 5 11 C4.01 10.67 3.02 10.34 2 10 C2 8.35 2 6.7 2 5 C0.68 5 -0.64 5 -2 5 C-2 4.34 -2 3.68 -2 3 C-1.34 3 -0.68 3 0 3 C0 2.01 0 1.02 0 0 Z " fill="#D46540" transform="translate(688,667)"/>
<path d="M0 0 C0.99 0.33 1.98 0.66 3 1 C2.67 3.97 2.34 6.94 2 10 C1.34 10 0.68 10 0 10 C0 9.34 0 8.68 0 8 C-0.66 8 -1.32 8 -2 8 C-2 6.68 -2 5.36 -2 4 C-1.34 4 -0.68 4 0 4 C0 2.68 0 1.36 0 0 Z " fill="#D25023" transform="translate(664,628)"/>
<path d="M0 0 C-1.12451727 2.9719385 -2.22293791 5.33440687 -4 8 C-4.33 7.34 -4.66 6.68 -5 6 C-5.99 6.495 -5.99 6.495 -7 7 C-6.6875 4.625 -6.6875 4.625 -6 2 C-3 0 -3 0 0 0 Z " fill="#DA653B" transform="translate(232,604)"/>
<path d="M0 0 C0.33 0.66 0.66 1.32 1 2 C0.0625 4.625 0.0625 4.625 -1 7 C-0.34 7 0.32 7 1 7 C1 7.66 1 8.32 1 9 C0.01 9 -0.98 9 -2 9 C-2 9.66 -2 10.32 -2 11 C-2.99 11 -3.98 11 -5 11 C-3.77472971 6.94718288 -2.30119506 3.55639236 0 0 Z " fill="#DC784D" transform="translate(501,469)"/>
<path d="M0 0 C0.66 0.33 1.32 0.66 2 1 C0.35 4.3 -1.3 7.6 -3 11 C-3.33 10.01 -3.66 9.02 -4 8 C-4.66 8 -5.32 8 -6 8 C-4.95125002 5.37812506 -4.35068687 4.20628639 -1.875 2.75 C-1.25625 2.5025 -0.6375 2.255 0 2 C0 1.34 0 0.68 0 0 Z " fill="#D86D43" transform="translate(432,240)"/>
<path d="M0 0 C0.99 0 1.98 0 3 0 C1.66666667 3.33333333 0.33333333 6.66666667 -1 10 C-1.66 10 -2.32 10 -3 10 C-3 8.68 -3 7.36 -3 6 C-2.34 6 -1.68 6 -1 6 C-1.20625 5.38125 -1.4125 4.7625 -1.625 4.125 C-1.74875 3.42375 -1.8725 2.7225 -2 2 C-1.34 1.34 -0.68 0.68 0 0 Z " fill="#DA734A" transform="translate(259,550)"/>
<path d="M0 0 C0.99 0 1.98 0 3 0 C1.8141763 3.37503669 0.72426311 5.64722731 -2 8 C-2 7.34 -2 6.68 -2 6 C-2.66 6 -3.32 6 -4 6 C-4 6.66 -4 7.32 -4 8 C-4.66 8 -5.32 8 -6 8 C-5.34 6.68 -4.68 5.36 -4 4 C-2.68 4 -1.36 4 0 4 C0 2.68 0 1.36 0 0 Z " fill="#DC6D46" transform="translate(214,632)"/>
<path d="M0 0 C0.66 0 1.32 0 2 0 C1.44271087 3.34373475 0.64826111 6.03312999 -1 9 C-3 6 -3 6 -3 2 C-2.01 2 -1.02 2 0 2 C0 1.34 0 0.68 0 0 Z " fill="#D25834" transform="translate(854,608)"/>
<path d="M0 0 C1.89213369 2.38573379 3.02391783 4.07175348 4 7 C3.01 7.495 3.01 7.495 2 8 C2 7.01 2 6.02 2 5 C1.01 5.66 0.02 6.32 -1 7 C-1.99 7 -2.98 7 -4 7 C-4 5.68 -4 4.36 -4 3 C-3.01 3 -2.02 3 -1 3 C-0.67 2.01 -0.34 1.02 0 0 Z " fill="#D25C33" transform="translate(646,591)"/>
<path d="M0 0 C2.15377564 2.62198774 3.40072174 4.64404172 4 8 C1.03 7.505 1.03 7.505 -2 7 C-2 6.01 -2 5.02 -2 4 C-1.34 4 -0.68 4 0 4 C0 2.68 0 1.36 0 0 Z " fill="#D9673C" transform="translate(606,518)"/>
<path d="M0 0 C1 2 1 2 1 6 C0.34 6 -0.32 6 -1 6 C-1.0825 6.61875 -1.165 7.2375 -1.25 7.875 C-2 10 -2 10 -4.0625 11.25 C-4.701875 11.4975 -5.34125 11.745 -6 12 C-4.43358249 7.69235185 -2.31663844 3.93828536 0 0 Z " fill="#D47253" transform="translate(853,636)"/>
<path d="M0 0 C3.0916909 2.52956528 3.90931332 5.22454612 5 9 C3.68 8.67 2.36 8.34 1 8 C1.33 6.68 1.66 5.36 2 4 C1.34 4 0.68 4 0 4 C0 4.66 0 5.32 0 6 C-0.66 6 -1.32 6 -2 6 C-2 4.68 -2 3.36 -2 2 C-1.34 2 -0.68 2 0 2 C0 1.34 0 0.68 0 0 Z " fill="#D66B42" transform="translate(580,472)"/>
<path d="M0 0 C0.33 0 0.66 0 1 0 C1.33 1.98 1.66 3.96 2 6 C2.99 6.33 3.98 6.66 5 7 C4.360625 7.12375 3.72125 7.2475 3.0625 7.375 C2.0415625 7.684375 2.0415625 7.684375 1 8 C0.67 8.66 0.34 9.32 0 10 C-2.21538462 4.58461538 -2.21538462 4.58461538 -1.125 1.625 C-0.75375 1.08875 -0.3825 0.5525 0 0 Z " fill="#D55D36" transform="translate(703,336)"/>
<path d="M0 0 C0.33 0 0.66 0 1 0 C1 2.97 1 5.94 1 9 C-0.32 8.67 -1.64 8.34 -3 8 C-2.25 2.25 -2.25 2.25 0 0 Z " fill="#D24F23" transform="translate(862,622)"/>
<path d="M0 0 C0.97533063 2.63339271 1.019574 3.92348347 0.3125 6.6875 C-1 9 -1 9 -3.125 9.8125 C-3.74375 9.874375 -4.3625 9.93625 -5 10 C-3.33333333 6.66666667 -1.66666667 3.33333333 0 0 Z " fill="#D6744D" transform="translate(507,458)"/>
<path d="M0 0 C2.74277578 3.19990508 4.6302836 6.00499382 6 10 C3.525 9.01 3.525 9.01 1 8 C1 7.01 1 6.02 1 5 C0.34 5 -0.32 5 -1 5 C-0.67 3.35 -0.34 1.7 0 0 Z " fill="#DE6E47" transform="translate(571,456)"/>
<path d="M0 0 C0.66 0 1.32 0 2 0 C0.84414715 3.91211733 -0.35534962 6.8745041 -3 10 C-3.88672454 7.5171713 -4.14518218 6.37970723 -3.1875 3.875 C-2 2 -2 2 0 0 Z " fill="#DB653B" transform="translate(313,454)"/>
<path d="M0 0 C2.475 0.495 2.475 0.495 5 1 C5.33 4.3 5.66 7.6 6 11 C0 3 0 3 0 0 Z " fill="#D16946" transform="translate(704,346)"/>
<path d="M0 0 C2 3 2 3 1.7578125 5.04296875 C1.171875 7.02864583 0.5859375 9.01432292 0 11 C-0.66 11 -1.32 11 -2 11 C-1.85957123 9.35369672 -1.71250671 7.70795821 -1.5625 6.0625 C-1.48128906 5.14597656 -1.40007813 4.22945312 -1.31640625 3.28515625 C-1 1 -1 1 0 0 Z " fill="#D44C20" transform="translate(550,733)"/>
<path d="M0 0 C1.31223496 3.93670488 0.24296256 6.12488144 -1 10 C-2.32 10 -3.64 10 -5 10 C-3.66511872 6.40608886 -2.03977277 3.24509304 0 0 Z " fill="#DB6D48" transform="translate(599,642)"/>
<path d="M0 0 C4.42857143 5.14285714 4.42857143 5.14285714 5 9 C3.68 9 2.36 9 1 9 C0.67 6.03 0.34 3.06 0 0 Z " fill="#F6E1D9" transform="translate(707,353)"/>
<path d="M0 0 C1.11375 0.3403125 1.11375 0.3403125 2.25 0.6875 C1.26 2.1725 1.26 2.1725 0.25 3.6875 C-2.06 3.3575 -4.37 3.0275 -6.75 2.6875 C-4.29511132 0.41445492 -3.41240272 -0.38777304 0 0 Z " fill="#D57754" transform="translate(300.75,821.3125)"/>
<path d="M0 0 C2.74277578 3.19990508 4.6302836 6.00499382 6 10 C4.02 9.34 2.04 8.68 0 8 C0 7.34 0 6.68 0 6 C0.66 6 1.32 6 2 6 C2 5.34 2 4.68 2 4 C1.34 4 0.68 4 0 4 C0 2.68 0 1.36 0 0 Z " fill="#D4673E" transform="translate(206,776)"/>
<path d="M0 0 C4.42857143 5.14285714 4.42857143 5.14285714 5 9 C3.68 8.67 2.36 8.34 1 8 C1 6.68 1 5.36 1 4 C0.34 3.67 -0.32 3.34 -1 3 C-0.67 2.01 -0.34 1.02 0 0 Z " fill="#D6633F" transform="translate(739,759)"/>
<path d="M0 0 C1.9375 0.75 1.9375 0.75 4 2 C4.75 4.125 4.75 4.125 5 6 C4.01 6 3.02 6 2 6 C2 5.34 2 4.68 2 4 C1.01 4.33 0.02 4.66 -1 5 C-0.67 3.35 -0.34 1.7 0 0 Z " fill="#D6633A" transform="translate(187,744)"/>
<path d="M0 0 C1.9375 0.75 1.9375 0.75 4 2 C4.6875 3.8125 4.6875 3.8125 5 6 C5.185625 6.9075 5.37125 7.815 5.5625 8.75 C5.706875 9.4925 5.85125 10.235 6 11 C2.1334716 7.777893 1.11940982 4.85077588 0 0 Z " fill="#D76F51" transform="translate(840,592)"/>
<path d="M0 0 C0.66 0.66 1.32 1.32 2 2 C1.625 4.125 1.625 4.125 1 6 C0.01 6 -0.98 6 -2 6 C-2 6.66 -2 7.32 -2 8 C-2.66 7.67 -3.32 7.34 -4 7 C-1.125 1.125 -1.125 1.125 0 0 Z " fill="#F3E1D1" transform="translate(332,424)"/>
<path d="M0 0 C0 3.90838866 -1.50567876 5.11594107 -4 8 C-4 6.35 -4 4.7 -4 3 C-4.66 3 -5.32 3 -6 3 C-6 2.34 -6 1.68 -6 1 C-4.02 0.67 -2.04 0.34 0 0 Z " fill="#DB7756" transform="translate(372,351)"/>
<path d="M0 0 C1.32 0.33 2.64 0.66 4 1 C3.01 1.495 3.01 1.495 2 2 C2 2.66 2 3.32 2 4 C1.34 4 0.68 4 0 4 C0 5.32 0 6.64 0 8 C-0.66 8 -1.32 8 -2 8 C-2 6.02 -2 4.04 -2 2 C-1.34 2 -0.68 2 0 2 C0 1.34 0 0.68 0 0 Z " fill="#DA591F" transform="translate(380,328)"/>
<path d="M0 0 C0.33 0 0.66 0 1 0 C1 1.65 1 3.3 1 5 C1.66 5 2.32 5 3 5 C3 5.66 3 6.32 3 7 C1.02 7 -0.96 7 -3 7 C-1.125 2.25 -1.125 2.25 0 0 Z " fill="#D55F40" transform="translate(801,729)"/>
<path d="M0 0 C0.99 0.33 1.98 0.66 3 1 C1.66667905 4.99996286 -0.4957827 5.83782337 -4 8 C-2.87548273 5.0280615 -1.77706209 2.66559313 0 0 Z " fill="#D5613B" transform="translate(556,720)"/>
<path d="M0 0 C0.66 0.33 1.32 0.66 2 1 C0.68 3.64 -0.64 6.28 -2 9 C-2.33 9 -2.66 9 -3 9 C-3.33 6.69 -3.66 4.38 -4 2 C-3.01 2 -2.02 2 -1 2 C-0.67 1.34 -0.34 0.68 0 0 Z " fill="#F9EADF" transform="translate(556,716)"/>
<path d="M0 0 C2 3.75 2 3.75 2 6 C0.02 6.99 -1.96 7.98 -4 9 C-2.80100302 5.9168649 -1.52299523 2.93720508 0 0 Z " fill="#F3E1D2" transform="translate(356,380)"/>
<path d="M0 0 C0.33 1.32 0.66 2.64 1 4 C0.34 4 -0.32 4 -1 4 C-1.2165625 5.175625 -1.2165625 5.175625 -1.4375 6.375 C-2 9 -2 9 -3 11 C-3.66 11 -4.32 11 -5 11 C-3.77472971 6.94718288 -2.30119506 3.55639236 0 0 Z " fill="#F1D9CB" transform="translate(381,335)"/>
<path d="M0 0 C0.6875 1.8125 0.6875 1.8125 1 4 C-0.375 5.5625 -0.375 5.5625 -2 7 C-2.33 7.99 -2.66 8.98 -3 10 C-3.66 10 -4.32 10 -5 10 C-3.84414715 6.08788267 -2.64465038 3.1254959 0 0 Z " fill="#F8E5D7" transform="translate(467,180)"/>
<path d="M0 0 C0.66 0 1.32 0 2 0 C1.625 2.4375 1.625 2.4375 1 5 C0.01 5.495 0.01 5.495 -1 6 C-1.33 6.99 -1.66 7.98 -2 9 C-2.66 9 -3.32 9 -4 9 C-2.80100302 5.9168649 -1.52299523 2.93720508 0 0 Z " fill="#D56A4C" transform="translate(782,763)"/>
<path d="M0 0 C2.15377564 2.62198774 3.40072174 4.64404172 4 8 C3.34 8 2.68 8 2 8 C1.67 7.34 1.34 6.68 1 6 C0.01 6 -0.98 6 -2 6 C-1.33333333 4 -0.66666667 2 0 0 Z " fill="#D96C4A" transform="translate(180,728)"/>
<path d="M0 0 C2.0625 0.4375 2.0625 0.4375 4 1 C2.68 3.31 1.36 5.62 0 8 C-0.33 8 -0.66 8 -1 8 C-1.04241723 5.66705225 -1.04092937 3.33297433 -1 1 C-0.67 0.67 -0.34 0.34 0 0 Z " fill="#F6EBDE" transform="translate(548,728)"/>
<path d="M0 0 C1.65 0 3.3 0 5 0 C5 0.99 5 1.98 5 3 C4.34 3 3.68 3 3 3 C3 3.66 3 4.32 3 5 C1.68 4.67 0.36 4.34 -1 4 C-0.67 2.68 -0.34 1.36 0 0 Z " fill="#D35122" transform="translate(595,651)"/>
<path d="M0 0 C0.66 0.33 1.32 0.66 2 1 C-0.475 5.455 -0.475 5.455 -3 10 C-3.92538169 6.29847322 -4.08174162 5.36541838 -3 2 C-2.01 2 -1.02 2 0 2 C0 1.34 0 0.68 0 0 Z " fill="#FAE5DA" transform="translate(848,642)"/>
<path d="M0 0 C0.33 0.66 0.66 1.32 1 2 C3.02463255 2.65213292 3.02463255 2.65213292 5 3 C3.6875 4.5 3.6875 4.5 2 6 C1.01 6 0.02 6 -1 6 C-0.67 4.02 -0.34 2.04 0 0 Z " fill="#D25A36" transform="translate(610,622)"/>
<path d="M0 0 C0.68707555 2.49064888 1 4.37886292 1 7 C0.01 7 -0.98 7 -2 7 C-2 7.66 -2 8.32 -2 9 C-2.66 9 -3.32 9 -4 9 C-2.94124926 5.59687262 -1.99097846 2.98646769 0 0 Z " fill="#D9754F" transform="translate(479,509)"/>
<path d="M0 0 C0.33 0.66 0.66 1.32 1 2 C1.66 2 2.32 2 3 2 C3 3.32 3 4.64 3 6 C2.34 6 1.68 6 1 6 C1 5.34 1 4.68 1 4 C0.34 4 -0.32 4 -1 4 C-1 4.99 -1 5.98 -1 7 C-1.66 7 -2.32 7 -3 7 C-1.125 2.25 -1.125 2.25 0 0 Z " fill="#D76B42" transform="translate(483,502)"/>
<path d="M0 0 C0.33 1.32 0.66 2.64 1 4 C0.34 4 -0.32 4 -1 4 C-1 4.66 -1 5.32 -1 6 C-0.01 6.33 0.98 6.66 2 7 C1.01 7.99 0.02 8.98 -1 10 C-2.25 3.375 -2.25 3.375 0 0 Z " fill="#D66C40" transform="translate(517,440)"/>
<path d="M0 0 C0.66 0 1.32 0 2 0 C2 0.66 2 1.32 2 2 C3.32 2.33 4.64 2.66 6 3 C5.34 4.65 4.68 6.3 4 8 C1.84622436 5.37801226 0.59927826 3.35595828 0 0 Z " fill="#D35C33" transform="translate(753,434)"/>
<path d="M0 0 C2.4375 0.75 2.4375 0.75 5 2 C5.8125 4.125 5.8125 4.125 6 6 C4.02 5.34 2.04 4.68 0 4 C0 2.68 0 1.36 0 0 Z " fill="#DA6939" transform="translate(546,415)"/>
<path d="M0 0 C1.32 0 2.64 0 4 0 C4 2.64 4 5.28 4 8 C1.84622436 5.37801226 0.59927826 3.35595828 0 0 Z " fill="#DA6840" transform="translate(682,306)"/>
<path d="M0 0 C1.0326802 2.78823655 1.04509293 3.8677274 0.0625 6.75 C-0.288125 7.4925 -0.63875 8.235 -1 9 C-1.99 9 -2.98 9 -4 9 C-2.94124926 5.59687262 -1.99097846 2.98646769 0 0 Z " fill="#F3DFD2" transform="translate(443,223)"/>
<path d="M0 0 C0.33 0.66 0.66 1.32 1 2 C1.66 2 2.32 2 3 2 C2.34 3.65 1.68 5.3 1 7 C-0.65 5.35 -2.3 3.7 -4 2 C-2.68 1.34 -1.36 0.68 0 0 Z " fill="#D5663D" transform="translate(613,176)"/>
<path d="M0 0 C1.32 0 2.64 0 4 0 C4.66 1.32 5.32 2.64 6 4 C3.50907189 5.24546405 2.58919267 4.7767578 0 4 C0 2.68 0 1.36 0 0 Z " fill="#D14B23" transform="translate(778,772)"/>
<path d="M0 0 C0.66 0.33 1.32 0.66 2 1 C1.67 3.31 1.34 5.62 1 8 C0.01 8 -0.98 8 -2 8 C-1.125 1.125 -1.125 1.125 0 0 Z " fill="#D94E23" transform="translate(613,616)"/>
<path d="M0 0 C0.91058531 3.07322544 1.08886184 5.80097361 1 9 C0.01 9 -0.98 9 -2 9 C-2.20140476 5.37471432 -1.85776765 3.13498292 0 0 Z " fill="#D27754" transform="translate(427,602)"/>
<path d="M0 0 C1.32 0 2.64 0 4 0 C3.39816251 2.02045442 2.72693904 4.02111039 2 6 C1.01 6.495 1.01 6.495 0 7 C0 4.69 0 2.38 0 0 Z " fill="#FAEDE1" transform="translate(450,554)"/>
<path d="M0 0 C0.66 0.33 1.32 0.66 2 1 C1.6875 2.875 1.6875 2.875 1 5 C0.01 5.66 -0.98 6.32 -2 7 C-2 5.02 -2 3.04 -2 1 C-1.34 0.67 -0.68 0.34 0 0 Z " fill="#D44F20" transform="translate(774,463)"/>
<path d="M0 0 C0.66 0 1.32 0 2 0 C3.125 4.75 3.125 4.75 2 7 C0.68 6.67 -0.64 6.34 -2 6 C-2 5.34 -2 4.68 -2 4 C-1.34 4 -0.68 4 0 4 C0 2.68 0 1.36 0 0 Z " fill="#D2551E" transform="translate(518,440)"/>
<path d="M0 0 C0.99 0.33 1.98 0.66 3 1 C2.34 2.98 1.68 4.96 1 7 C0.01 6.34 -0.98 5.68 -2 5 C-2 4.34 -2 3.68 -2 3 C-1.34 3 -0.68 3 0 3 C0 2.01 0 1.02 0 0 Z " fill="#DB673A" transform="translate(384,323)"/>
<path d="M0 0 C1.32 0 2.64 0 4 0 C2.92598892 2.91517292 2.22189824 4.77810176 0 7 C-1.125 2.25 -1.125 2.25 0 0 Z " fill="#D56A3E" transform="translate(412,272)"/>
<path d="M0 0 C0.99 0 1.98 0 3 0 C3 1.32 3 2.64 3 4 C3.66 4.33 4.32 4.66 5 5 C3.68 5.33 2.36 5.66 1 6 C0.67 4.02 0.34 2.04 0 0 Z " fill="#D24B21" transform="translate(787,756)"/>
<path d="M0 0 C-1.98 1.32 -3.96 2.64 -6 4 C-6 3.34 -6 2.68 -6 2 C-7.32 1.67 -8.64 1.34 -10 1 C-3.71428571 -1.42857143 -3.71428571 -1.42857143 0 0 Z " fill="#DE7552" transform="translate(521,755)"/>
<path d="M0 0 C0.99 0.99 1.98 1.98 3 3 C2.34 4.98 1.68 6.96 1 9 C0.67 9 0.34 9 0 9 C0 6.03 0 3.06 0 0 Z " fill="#D14B25" transform="translate(693,679)"/>
<path d="M0 0 C2.15377564 2.62198774 3.40072174 4.64404172 4 8 C2.68 8 1.36 8 0 8 C0 5.36 0 2.72 0 0 Z " fill="#DF704E" transform="translate(616,536)"/>
<path d="M0 0 C0.82638376 2.89234315 1 4.88742431 1 8 C-0.32 8 -1.64 8 -3 8 C-1.125 2.25 -1.125 2.25 0 0 Z " fill="#F2E1D9" transform="translate(295,490)"/>
<path d="M0 0 C0.33 0 0.66 0 1 0 C1 2.31 1 4.62 1 7 C-0.32 7.33 -1.64 7.66 -3 8 C-1.125 2.25 -1.125 2.25 0 0 Z " fill="#DB7747" transform="translate(521,432)"/>
<path d="M0 0 C0.33 0.66 0.66 1.32 1 2 C1.66 2 2.32 2 3 2 C3 3.65 3 5.3 3 7 C0 6 0 6 -1.1875 3.9375 C-1.5896875 2.9784375 -1.5896875 2.9784375 -2 2 C-1.34 2 -0.68 2 0 2 C0 1.34 0 0.68 0 0 Z " fill="#E05A31" transform="translate(554,430)"/>
<path d="M0 0 C0.94875 0.04125 1.8975 0.0825 2.875 0.125 C2.875 0.455 2.875 0.785 2.875 1.125 C1.451875 1.49625 1.451875 1.49625 0 1.875 C-3.21193191 2.8107077 -3.21193191 2.8107077 -4.5 5.25 C-4.70625 5.86875 -4.9125 6.4875 -5.125 7.125 C-5.785 7.125 -6.445 7.125 -7.125 7.125 C-4.56730769 0.18269231 -4.56730769 0.18269231 0 0 Z " fill="#D57456" transform="translate(540.125,404.875)"/>
<path d="M0 0 C0.66 1.32 1.32 2.64 2 4 C-0.97 6.475 -0.97 6.475 -4 9 C-2.80100302 5.9168649 -1.52299523 2.93720508 0 0 Z " fill="#F3E8DA" transform="translate(438,232)"/>
<path d="M0 0 C-0.33 1.98 -0.66 3.96 -1 6 C-1.66 6 -2.32 6 -3 6 C-3.33 4.35 -3.66 2.7 -4 1 C-2 0 -2 0 0 0 Z " fill="#DA7247" transform="translate(618,182)"/>
<path d="M0 0 C1.32 0 2.64 0 4 0 C3.67 1.65 3.34 3.3 3 5 C2.34 5 1.68 5 1 5 C1 4.34 1 3.68 1 3 C0.34 3 -0.32 3 -1 3 C-0.67 2.01 -0.34 1.02 0 0 Z " fill="#D5501E" transform="translate(717,727)"/>
<path d="M0 0 C1.32 0 2.64 0 4 0 C4 1.32 4 2.64 4 4 C2.68 4.33 1.36 4.66 0 5 C0 3.35 0 1.7 0 0 Z " fill="#D94B24" transform="translate(708,710)"/>
<path d="M0 0 C3 3.75 3 3.75 3 6 C1.35 6 -0.3 6 -2 6 C-1.34 4.02 -0.68 2.04 0 0 Z " fill="#DB5E34" transform="translate(703,694)"/>
<path d="M0 0 C0.6875 1.6875 0.6875 1.6875 1 4 C-0.3125 6.75 -0.3125 6.75 -2 9 C-2.66 9 -3.32 9 -4 9 C-2.94124926 5.59687262 -1.99097846 2.98646769 0 0 Z " fill="#D97854" transform="translate(605,631)"/>
<path d="M0 0 C0.99 0 1.98 0 3 0 C3 0.66 3 1.32 3 2 C2.01 2.66 1.02 3.32 0 4 C-0.33 4.99 -0.66 5.98 -1 7 C-1.99 7.33 -2.98 7.66 -4 8 C-2.87548273 5.0280615 -1.77706209 2.66559313 0 0 Z " fill="#F6DFD1" transform="translate(341,408)"/>
<path d="M0 0 C0.99 0 1.98 0 3 0 C3 0.66 3 1.32 3 2 C3.66 2.33 4.32 2.66 5 3 C4.34 4.32 3.68 5.64 3 7 C0 2.25 0 2.25 0 0 Z " fill="#D26337" transform="translate(736,404)"/>
<path d="M0 0 C0.99 0 1.98 0 3 0 C2.1875 2.4375 2.1875 2.4375 1 5 C0.01 5.33 -0.98 5.66 -2 6 C-1.34 4.02 -0.68 2.04 0 0 Z " fill="#D76F40" transform="translate(391,312)"/>
</svg>
