<?xml version="1.0" encoding="UTF-8"?>
<svg version="1.1" xmlns="http://www.w3.org/2000/svg" width="1080" height="1080">
<path d="M0 0 C356.4 0 712.8 0 1080 0 C1080 356.4 1080 712.8 1080 1080 C723.6 1080 367.2 1080 0 1080 C0 723.6 0 367.2 0 0 Z " fill="#000C1E" transform="translate(0,0)"/>
<path d="M0 0 C0.66 0 1.32 0 2 0 C2 0.66 2 1.32 2 2 C2.721875 2.0825 3.44375 2.165 4.1875 2.25 C7.69068244 3.18418199 9.43905089 4.43905089 12 7 C13.7693391 11.28774019 14.24978015 14.92159718 14.24888897 19.53792286 C14.25578716 21.49737314 14.25578716 21.49737314 14.26282471 23.49640828 C14.25780924 24.93997371 14.25260697 26.3835385 14.24723816 27.82710266 C14.24882705 29.36709283 14.25129145 30.9070823 14.25455457 32.44706982 C14.26097094 36.68076183 14.25489612 40.91435826 14.24679029 45.14804399 C14.24020878 49.72085077 14.24516467 54.29364693 14.24867249 58.86645508 C14.25372732 67.85786066 14.2480455 76.84922954 14.23882218 85.84063057 C14.22836568 96.42656164 14.22851081 107.01248503 14.22899476 117.59842028 C14.22949671 136.63682878 14.2203243 155.6752206 14.20581055 174.71362305 C14.19194918 192.9069856 14.18469883 211.10033327 14.18530273 229.29370117 C14.18535245 231.52461565 14.18539978 233.75553012 14.18544471 235.98644459 C14.18546726 237.08870331 14.1854898 238.19096204 14.18551303 239.32662254 C14.18554394 240.97775744 14.18554394 240.97775744 14.18557549 242.66224861 C14.18559643 243.76127286 14.18561738 244.86029711 14.18563896 245.99262512 C14.18612036 296.56924959 14.13533019 347.14567219 14.01882275 397.72216616 C14.00638507 403.12638635 13.99463804 408.53060727 13.98362395 413.93483055 C13.94747815 431.5884128 13.90048756 449.24180587 13.80121809 466.89516109 C13.76476366 473.38174594 13.73339547 479.86823648 13.71861839 486.35491371 C13.70487629 492.15851874 13.67264968 497.96169604 13.62437034 503.76511407 C13.61024128 505.82406386 13.60265726 507.88307152 13.60239053 509.94206977 C13.60092338 512.70078428 13.57515681 515.45821906 13.54292297 518.21672058 C13.54824781 518.99992985 13.55357265 519.78313911 13.55905885 520.59008199 C13.45982773 525.93081624 12.34213194 530.70100873 9 535 C5.5625 535.9375 5.5625 535.9375 2 536 C0.33065717 536.31966139 -1.3373217 536.64731066 -3 537 C-3 536.34 -3 535.68 -3 535 C-63.72 535 -124.44 535 -187 535 C-187 535.66 -187 536.32 -187 537 C-193.29547746 537.34200783 -198.50585427 537.4866694 -204 534 C-209.64239044 527.73252147 -210.85935238 522.31988209 -210.62109375 514.078125 C-210.61497574 513.05628113 -210.60885773 512.03443726 -210.60255432 510.98162842 C-210.57580476 507.73671654 -210.50686083 504.49425006 -210.4375 501.25 C-210.41594401 499.0885667 -210.39704106 496.92710522 -210.38085938 494.765625 C-210.27885847 484.48038616 -210.04572645 474.23882945 -209 464 C-208.01 463.67 -207.02 463.34 -206 463 C-205.95101563 461.76765625 -205.90203125 460.5353125 -205.8515625 459.265625 C-204.84519606 436.13323917 -204.84519606 436.13323917 -201.4375 428.5 C-199.68371495 424.22991466 -199.50489226 420.44748603 -199.30859375 415.8671875 C-198.98581935 412.86824558 -198.16511317 410.76870978 -197 408 C-196.35196882 405.56852168 -195.72884482 403.13032678 -195.125 400.6875 C-193.67629006 395.00800775 -191.7641669 390.1597782 -189 385 C-188.690625 383.824375 -188.38125 382.64875 -188.0625 381.4375 C-186.93619754 377.79358029 -185.43677496 375.60400505 -183.16015625 372.6171875 C-181.67176998 370.54246725 -180.8943011 368.38480294 -180 366 C-178.72315609 363.63013795 -177.36529517 361.3210018 -176 359 C-175.34 359 -174.68 359 -174 359 C-173.67 357.35 -173.34 355.7 -173 354 C-171.68 353.67 -170.36 353.34 -169 353 C-168.896875 352.21625 -168.79375 351.4325 -168.6875 350.625 C-168 348 -168 348 -165 346 C-163.94073305 344.37035854 -162.94782829 342.69687929 -162 341 C-160.8669909 339.07572468 -159.72086931 337.15911646 -158.5625 335.25 C-157.98628906 334.28578125 -157.41007812 333.3215625 -156.81640625 332.328125 C-155 330 -155 330 -152.77734375 329.171875 C-152.19082031 329.11515625 -151.60429688 329.0584375 -151 329 C-150.896875 328.26652344 -150.79375 327.53304688 -150.6875 326.77734375 C-149.9308674 323.72071999 -148.87843631 322.07142998 -147 319.5625 C-143.42701982 314.67276936 -140.18256448 309.63285341 -137.02148438 304.47094727 C-136.06597726 302.94699798 -135.03887279 301.46838639 -134 300 C-133.34 300 -132.68 300 -132 300 C-131.64035156 298.94039062 -131.64035156 298.94039062 -131.2734375 297.859375 C-129.79072165 294.53008664 -127.90315039 292.09584482 -125.625 289.25 C-121.58787402 284.12841743 -117.74245051 278.90308781 -114 273.5625 C-113.49726562 272.84553955 -112.99453125 272.1285791 -112.4765625 271.38989258 C-111.4718917 269.95587389 -110.46765478 268.52155112 -109.46386719 267.08691406 C-107.19984842 263.85929024 -104.91532632 260.64649049 -102.625 257.4375 C-102.21354736 256.85983887 -101.80209473 256.28217773 -101.37817383 255.68701172 C-99.20218158 252.64249038 -96.97715399 249.64715453 -94.6875 246.6875 C-92.06740616 243.24862683 -90.00293935 239.60101502 -87.98046875 235.78515625 C-87 234 -87 234 -86 233 C-84.91040468 227.30989112 -84.83513013 221.77912286 -85 216 C-84.99355469 215.18273437 -84.98710938 214.36546875 -84.98046875 213.5234375 C-85.26182321 205.08280378 -89.26809551 198.78708977 -95.11328125 192.85546875 C-102.49565336 186.62700205 -110.48299382 184.41127434 -120.05859375 184.7109375 C-128.07029507 185.49827601 -134.83019005 186.6386479 -141 192 C-142.175625 192.61875 -142.175625 192.61875 -143.375 193.25 C-147.67338264 196.11558842 -151.67348018 200.34696036 -154 205 C-154.66 205 -155.32 205 -156 205 C-156.27328125 205.73992187 -156.5465625 206.47984375 -156.828125 207.2421875 C-157.93236295 209.84082747 -159.11229757 211.83728165 -160.75 214.125 C-161.36359375 214.98222656 -161.9771875 215.83945312 -162.609375 216.72265625 C-163.40512103 217.81592679 -164.20215519 218.90826016 -165 220 C-165.78407227 221.07483643 -165.78407227 221.07483643 -166.58398438 222.17138672 C-177.52061734 237.14036728 -177.52061734 237.14036728 -182.75 243.77734375 C-185.07832476 246.75030074 -187.10997586 249.72620818 -189 253 C-190.31099288 254.80807768 -191.64649406 256.59852346 -193 258.375 C-193.80931271 259.44346622 -194.61787308 260.51250261 -195.42578125 261.58203125 C-195.84811035 262.14100098 -196.27043945 262.6999707 -196.70556641 263.27587891 C-199.3527882 266.80184653 -201.947618 270.36635742 -204.54956055 273.92578125 C-207.22230598 277.58005904 -209.90539339 281.22623914 -212.6015625 284.86328125 C-213.21749268 285.69529053 -213.83342285 286.5272998 -214.46801758 287.38452148 C-215.66147479 288.99596517 -216.8565201 290.60623442 -218.0534668 292.21508789 C-221.36929256 296.69656983 -224.51787437 301.25272782 -227.58666992 305.90625 C-229.60464088 308.89573332 -231.77961962 311.71941679 -234 314.5625 C-234.86616867 315.67816556 -235.73205492 316.79405045 -236.59765625 317.91015625 C-237.39042969 318.92980469 -238.18320312 319.94945312 -239 321 C-240.15052566 322.49640394 -241.29723625 323.99576179 -242.4375 325.5 C-243.08525391 326.35078125 -243.08525391 326.35078125 -243.74609375 327.21875 C-245.07589739 329.03598134 -245.07589739 329.03598134 -246.24609375 331.28515625 C-248.6180265 334.95663345 -251.52837174 337.86961647 -254.625 340.9375 C-255.2538208 341.56068115 -255.8826416 342.1838623 -256.53051758 342.82592773 C-274.31288159 360.14747872 -296.57988774 364.3059664 -320.5625 364.25 C-321.62401276 364.24870087 -321.62401276 364.24870087 -322.70697021 364.24737549 C-341.81289557 364.18710443 -341.81289557 364.18710443 -344 362 C-345.43267304 361.72367732 -346.87163335 361.47980329 -348.3125 361.25 C-355.64891848 359.84402931 -363.79360438 357.5847674 -369 352 C-370.010625 351.46375 -371.02125 350.9275 -372.0625 350.375 C-380.68890532 345.60489028 -388.98045802 337.4906918 -393.7421875 328.83203125 C-396.28694623 324.29951593 -399.50842292 320.36089656 -402.75 316.3125 C-407.4847582 310.32206803 -411.9786802 304.33013761 -416.05859375 297.87109375 C-418.27397324 294.59482831 -420.68284665 291.51587793 -423.12475586 288.40649414 C-426.17600296 284.49083958 -429.11873923 280.49673389 -432.0625 276.5 C-432.64837891 275.70980469 -433.23425781 274.91960937 -433.83789062 274.10546875 C-437.20420963 269.53982855 -440.41469826 264.90482043 -443.53735352 260.16992188 C-445.88377587 256.68886665 -448.4021818 253.34475241 -450.9375 250 C-451.45892578 249.30720947 -451.98035156 248.61441895 -452.51757812 247.90063477 C-455.30143924 244.21028968 -458.1250444 240.55758448 -461 236.9375 C-463.248928 234.07522799 -465.06181558 231.18691599 -466.80078125 227.98046875 C-469.0603136 224.24892835 -471.79341641 220.8517086 -474.44140625 217.390625 C-476.25030198 215.01807258 -477.99681434 212.6109997 -479.71484375 210.171875 C-488.23268643 198.1239264 -497.5552863 187.41378185 -512.75 184.2890625 C-523.94036618 182.85141129 -532.3984328 184.12884359 -541.578125 190.90234375 C-545.83418283 194.47880525 -549.0742622 197.67590137 -551 203 C-551.556875 204.5159375 -551.556875 204.5159375 -552.125 206.0625 C-555.61371304 219.59989932 -553.61699517 231.45888635 -546.6484375 243.44140625 C-544.63908171 246.56019308 -542.43653525 249.4323574 -540.1015625 252.3125 C-537.35300309 255.82738638 -534.80734913 259.46967183 -532.25 263.125 C-528.3925888 268.62888188 -524.49374277 274.09418906 -520.5 279.5 C-516.13023382 285.42030305 -511.86457005 291.40744269 -507.63867188 297.43115234 C-504.9527624 301.25360911 -502.24262148 305.05566573 -499.4921875 308.83203125 C-498.90937012 309.63278076 -498.32655273 310.43353027 -497.72607422 311.25854492 C-496.60838283 312.79090456 -495.487797 314.32115893 -494.36376953 315.84887695 C-491.98636526 319.10966987 -489.74331164 322.34167493 -487.78125 325.87109375 C-486.14174315 329.08682098 -486.14174315 329.08682098 -483.5 331.4375 C-480.38112198 334.63434997 -478.82243027 337.96856334 -477 342 C-474.89718406 346.74664299 -474.89718406 346.74664299 -471 350 C-471 351.32 -471 352.64 -471 354 C-470.01 354.33 -469.02 354.66 -468 355 C-466.96210419 356.64333504 -465.96432076 358.31243867 -465 360 C-464.505 360.495 -464.01 360.99 -463.5 361.5 C-460.24050857 364.75949143 -458.66658956 368.78450875 -457 373 C-456.00118487 375.0349304 -454.97274183 377.05360774 -453.9453125 379.07421875 C-452.83527321 381.33557978 -451.93516582 383.66208545 -451 386 C-450.01 387.485 -450.01 387.485 -449 389 C-448.14841342 392.30415594 -447.47349879 395.62789717 -446.78125 398.96875 C-446.13942052 402.14781344 -446.13942052 402.14781344 -444 405 C-443.835 406.175625 -443.67 407.35125 -443.5 408.5625 C-443.34152243 412.0571192 -443.34152243 412.0571192 -441 414 C-440.32983398 416.59790039 -440.32983398 416.59790039 -439.74609375 419.84765625 C-439.53146484 421.00974609 -439.31683594 422.17183594 -439.09570312 423.36914062 C-438.87849609 424.58794922 -438.66128906 425.80675781 -438.4375 427.0625 C-438.0020753 429.4706652 -437.56345044 431.87825474 -437.12109375 434.28515625 C-436.9295874 435.35644775 -436.73808105 436.42773926 -436.54077148 437.53149414 C-436.24737629 439.93242716 -436.24737629 439.93242716 -435 441 C-434.42140563 444.61621479 -433.9686432 448.24301522 -433.5 451.875 C-433.33573032 454.85977295 -433.33573032 454.85977295 -432 456 C-431.76754302 458.28942433 -431.60304046 460.58577056 -431.46484375 462.8828125 C-431.40010612 463.95424248 -431.40010612 463.95424248 -431.33406067 465.0473175 C-431.1950021 467.4062093 -431.06509545 469.76546156 -430.9375 472.125 C-430.89330933 472.92656525 -430.84911865 473.72813049 -430.80358887 474.5539856 C-430.17390822 486.18120961 -429.78692178 497.79318187 -429.75 509.4375 C-429.740896 510.73252441 -429.73179199 512.02754883 -429.72241211 513.36181641 C-429.72635986 514.56112793 -429.73030762 515.76043945 -429.734375 516.99609375 C-429.73663086 518.03950928 -429.73888672 519.0829248 -429.74121094 520.15795898 C-430.28155969 526.0921098 -432.69224738 529.02361296 -437 533 C-437.33 533.33 -437.66 533.66 -438 534 C-440.62450184 534.11555341 -443.22333733 534.16562402 -445.84901428 534.17408752 C-446.68135241 534.18058648 -447.51369055 534.18708543 -448.37125105 534.19378132 C-451.18246817 534.21428931 -453.99367067 534.2274293 -456.80493164 534.24047852 C-458.81177984 534.25328308 -460.81862595 534.26641839 -462.82546997 534.27986145 C-481.16792271 534.3959005 -499.5109253 534.45241304 -517.8536768 534.49662876 C-531.41774431 534.52987071 -544.98114393 534.58941521 -558.5449248 534.68413979 C-568.07534317 534.74845155 -577.60557949 534.78216301 -587.13620657 534.79337829 C-592.83100559 534.80094322 -598.52499886 534.82216167 -604.21956062 534.87640572 C-609.58042979 534.92686551 -614.94006697 534.93944136 -620.30113602 534.92315483 C-622.2667635 534.92375832 -624.23244249 534.93802525 -626.197855 534.96710205 C-628.8874231 535.00480497 -631.57247505 534.99281764 -634.26210022 534.96876526 C-635.03575977 534.99138587 -635.80941932 535.01400648 -636.6065231 535.03731257 C-640.94813684 534.93883216 -644.00053322 533.83921565 -647.4843092 531.21901798 C-653.64671292 524.29479447 -652.08238026 514.21095358 -651.98895264 505.52694702 C-651.99530674 503.40003367 -652.00516289 501.27312838 -652.01821828 499.1462456 C-652.04387515 493.3036998 -652.01960016 487.46226253 -651.98716116 481.6197896 C-651.96085319 475.31842535 -651.98064688 469.01718506 -651.99468994 462.71580505 C-652.0125326 451.79760078 -652.00095925 440.87980814 -651.9681015 429.96165085 C-651.93363976 418.50802965 -651.91402096 407.0545551 -651.91477203 395.60087967 C-651.91480262 394.88833174 -651.9148332 394.17578382 -651.91486471 393.44164353 C-651.91502834 390.54920361 -651.91529079 387.65676373 -651.91568796 384.76432383 C-651.91931196 357.63301912 -651.87953689 330.50193783 -651.8179693 303.37071066 C-651.76346241 279.26208186 -651.73852467 255.15361176 -651.74121094 231.04492188 C-651.74137258 229.49663045 -651.74153402 227.94833902 -651.74169526 226.40004759 C-651.74177666 225.63460395 -651.74185806 224.86916031 -651.74194193 224.08052141 C-651.74234511 220.22743977 -651.74270744 216.37435812 -651.74302292 212.52127647 C-651.74308977 211.76113406 -651.74315663 211.00099165 -651.74322551 210.21781461 C-651.74468587 190.07557764 -651.72653521 169.93336055 -651.70171666 149.7911402 C-651.70083557 149.07474036 -651.69995449 148.35834053 -651.6990467 147.62023161 C-651.69549377 144.73939209 -651.69194018 141.85855257 -651.68828288 138.97771317 C-651.67564086 128.9520784 -651.66960556 118.92645928 -651.66783692 108.90081708 C-651.66544948 95.98296003 -651.64903844 83.0652675 -651.61011109 70.14746021 C-651.59161837 63.91689744 -651.57946471 57.68649609 -651.58448792 51.45590401 C-651.58886017 45.75646275 -651.57484371 40.05737885 -651.54589382 34.35801215 C-651.53862637 32.29222209 -651.53813309 30.22639524 -651.54496297 28.16060369 C-651.55320068 25.3596045 -651.53700856 22.55978284 -651.51453781 19.75888634 C-651.52686972 18.54660278 -651.52686972 18.54660278 -651.53945076 17.30982864 C-651.46254329 12.08713222 -650.39813549 9.17658673 -647 5 C-644.07586267 2.22085642 -642.17178421 1.62498024 -638.17141724 1.6257782 C-636.71683357 1.61525673 -636.71683357 1.61525673 -635.23286438 1.60452271 C-634.1752037 1.61216644 -633.11754303 1.61981018 -632.02783203 1.62768555 C-630.90856827 1.62403488 -629.7893045 1.62038422 -628.63612366 1.61662292 C-624.92653332 1.60850202 -621.21737799 1.6221494 -617.5078125 1.63671875 C-614.92389934 1.63723753 -612.33998577 1.63671913 -609.756073 1.63520813 C-604.33048162 1.63529795 -598.90504909 1.64540014 -593.47949219 1.66381836 C-587.24031436 1.68487979 -581.00132078 1.6885188 -574.76211464 1.6822564 C-568.73398904 1.67651906 -562.70594397 1.68237247 -556.67782211 1.69342995 C-554.12717827 1.69725759 -551.57652894 1.69844036 -549.02588272 1.6968441 C-524.15527146 1.69424417 -524.15527146 1.69424417 -512 4 C-510.12577415 4.27613971 -508.25085874 4.5476799 -506.375 4.8125 C-500.75069162 5.76886013 -495.2256006 7.07887968 -489.6875 8.4375 C-488.83913574 8.64286377 -487.99077148 8.84822754 -487.11669922 9.05981445 C-482.14934556 10.30923251 -477.67379612 11.91520367 -473 14 C-470.42504512 14.81831193 -467.83918388 15.53798828 -465.234375 16.25390625 C-463 17 -463 17 -460 19 C-458.59582086 19.49527249 -457.17726299 19.95081345 -455.75 20.375 C-451.48609165 21.75751924 -447.81252689 23.66640654 -444 26 C-442.04214631 27.12583452 -440.08376557 28.25075275 -438.125 29.375 C-416.41970528 42.07921982 -398.85907155 58.28996063 -384.30859375 78.76953125 C-380.57993266 83.98713315 -376.74331529 89.12545239 -372.92260742 94.27587891 C-369.83587821 98.45206727 -366.86214148 102.66522141 -364 107 C-362.39308699 109.28388681 -360.75859835 111.54765318 -359.125 113.8125 C-356.26586574 117.79165357 -353.44209824 121.77987702 -350.75 125.875 C-346.62024384 132.13923687 -342.14295144 137.99623303 -337.1015625 143.5546875 C-336 145 -336 145 -336 147 C-332.90477312 148.4508876 -330.12124318 149.18657001 -326.75 149.5625 C-323 150 -323 150 -322 151 C-314.82697149 151.61047051 -307.75029439 150.27198232 -302.125 145.625 C-295.49935923 137.44038494 -289.28355538 129.03272689 -283.48828125 120.23828125 C-277.623656 111.41825429 -271.56705204 102.53457833 -264.82421875 94.36328125 C-262.83530149 92.05482947 -262.83530149 92.05482947 -262 89 C-261.34 89 -260.68 89 -260 89 C-259.690625 87.9790625 -259.690625 87.9790625 -259.375 86.9375 C-257.84711674 83.67338576 -255.96042108 81.4737047 -253.53515625 78.84375 C-251.91944481 77.00797896 -251.91944481 77.00797896 -250.67578125 74.71875 C-248.48766532 71.16879968 -245.85653768 68.14093276 -243.125 65 C-242.60808594 64.39671875 -242.09117187 63.7934375 -241.55859375 63.171875 C-238.50401183 59.63256093 -235.35264509 56.26317104 -232 53 C-230.59427734 51.61554688 -230.59427734 51.61554688 -229.16015625 50.203125 C-207.10933366 29 -207.10933366 29 -197 29 C-197 28.34 -197 27.68 -197 27 C-193.84704156 25.38507007 -190.72478116 23.88894678 -187.4375 22.5625 C-183.98167361 21.18129332 -183.98167361 21.18129332 -181.5 18.875 C-178.36139229 16.52104421 -175.84411129 16.43518241 -172 16 C-171.34 15.34 -170.68 14.68 -170 14 C-168.01363702 13.29373761 -166.01151741 12.63106429 -164 12 C-163.21625 11.67 -162.4325 11.34 -161.625 11 C-158.80193582 9.92454698 -156.00493236 9.22692021 -153.0625 8.5625 C-150.93011089 8.0310842 -150.93011089 8.0310842 -148.72410583 7.03118896 C-121.91260455 -3.11809522 -86.30884147 1.53008238 -58.3515625 1.7253418 C-51.75330828 1.76691014 -45.15498917 1.7846657 -38.55664062 1.8046875 C-25.70426625 1.84706413 -12.85215402 1.91414461 0 2 C0 1.34 0 0.68 0 0 Z " fill="#0C6DFC" transform="translate(874,272)"/>
<path d="M0 0 C0.96905273 0.00829834 1.93810547 0.01659668 2.93652344 0.02514648 C16.15629317 0.33668249 26.14704467 4.54325221 35.6328125 13.83203125 C42.69302697 21.41651907 47.28791722 28.5044698 50.1875 38.4375 C50.5175 39.4275 50.8475 40.4175 51.1875 41.4375 C52.33974087 59.34445642 49.36688988 74.0798373 38.1875 88.4375 C33.56751399 93.43887323 28.08162599 97.08884561 22.1875 100.4375 C21.218125 100.994375 20.24875 101.55125 19.25 102.125 C9.23513723 106.41708405 -4.10901513 107.72197561 -14.375 103.625 C-15.86222882 102.91242125 -17.34243697 102.18485048 -18.8125 101.4375 C-20.00875 100.98375 -21.205 100.53 -22.4375 100.0625 C-30.1269169 96.36018816 -35.46462975 90.97981843 -40.8125 84.4375 C-41.59625 83.550625 -42.38 82.66375 -43.1875 81.75 C-44.93857767 79.25808178 -45.46936319 77.43994709 -45.8125 74.4375 C-46.4725 74.4375 -47.1325 74.4375 -47.8125 74.4375 C-52.00690864 60.30633757 -53.78777194 42.10913723 -46.85009766 28.55761719 C-39.05610618 14.73586156 -28.42459595 6.01170099 -13.35229492 1.0769043 C-8.91835321 -0.0393596 -4.5513983 -0.05026327 0 0 Z " fill="#000C1F" transform="translate(554.8125,490.5625)"/>
</svg>
